<?xml version="1.0" encoding="UTF-8"?>
<svg version="1.1" xmlns="http://www.w3.org/2000/svg" width="500" height="500">
<path d="M0 0 C0 4.29 0 8.58 0 13 C-1.216875 13.2475 -2.43375 13.495 -3.6875 13.75 C-8.23364506 14.89257097 -11.547123 16.68767464 -14.109375 20.765625 C-15.91542337 25.29658845 -15.51828129 30.2202948 -15 35 C-12.82845546 39.58437182 -10.59880906 41.94220683 -6 44 C-2.12248311 44.47707246 1.74121108 44.48883114 5.64453125 44.51171875 C7.33191658 44.53864555 7.33191658 44.53864555 9.0533905 44.56611633 C12.63972243 44.62021716 16.22592125 44.65411525 19.8125 44.6875 C22.24676331 44.72067317 24.68100906 44.75516282 27.11523438 44.79101562 C33.07670357 44.87594363 39.03818999 44.94429466 45 45 C45.19456705 46.95764383 45.38044247 48.91615321 45.5625 50.875 C45.71912109 52.51082031 45.71912109 52.51082031 45.87890625 54.1796875 C46 57 46 57 45 59 C37.49220874 58.98364882 29.98539513 58.9286066 22.47802734 58.84741211 C19.92731059 58.82430018 17.37649932 58.80985249 14.82568359 58.80444336 C11.14621543 58.79510461 7.46822 58.75400181 3.7890625 58.70703125 C2.65949127 58.7109639 1.52992004 58.71489655 0.36611938 58.71894836 C-8.02011114 58.56647074 -14.86942115 56.8268745 -21.14730835 51.01057434 C-27.37148578 44.45476829 -29.57525634 38.06492568 -29.5 29.1875 C-29.49355469 28.39432373 -29.48710937 27.60114746 -29.48046875 26.78393555 C-29.20766314 18.01556839 -26.55585612 12.14195633 -20.1875 6.0625 C-13.77669327 0.96272129 -8.08657769 -0.43320952 0 0 Z " fill="#03193E" transform="translate(42,221)"/>
<path d="M0 0 C0.85078125 -0.01546875 1.7015625 -0.0309375 2.578125 -0.046875 C10.75269853 0.00327576 17.06555951 2.82861095 23 8.5 C27.36276125 15.16961953 29.73521294 21.55638831 30 29.5 C25.71 29.5 21.42 29.5 17 29.5 C16.4121875 27.4271875 16.4121875 27.4271875 15.8125 25.3125 C14.33572689 20.94399909 12.76912612 18.32684459 9 15.5 C3.62796447 13.22721574 -1.4108856 12.91472392 -7 14.5 C-10.79470339 16.66378832 -13.3767709 19.43515732 -15 23.5 C-15.32431277 25.96185969 -15.32431277 25.96185969 -15.31884766 28.63574219 C-15.33871735 29.65649841 -15.35858704 30.67725464 -15.37905884 31.72894287 C-15.39061005 32.82386047 -15.40216125 33.91877808 -15.4140625 35.046875 C-15.43342865 36.1732135 -15.4527948 37.299552 -15.4727478 38.46002197 C-15.53251521 42.05660434 -15.57891819 45.65321876 -15.625 49.25 C-15.66318234 51.68881602 -15.70223422 54.1276186 -15.7421875 56.56640625 C-15.83821466 62.54416158 -15.92225667 68.52198005 -16 74.5 C-20.29 74.5 -24.58 74.5 -29 74.5 C-29.09924142 67.11682 -29.17164627 59.73403256 -29.21972656 52.3503418 C-29.23978062 49.84115836 -29.26703085 47.33202131 -29.30175781 44.82299805 C-29.35054754 41.20610067 -29.37303182 37.5898239 -29.390625 33.97265625 C-29.41127014 32.85979752 -29.43191528 31.74693878 -29.45318604 30.60035706 C-29.45565879 21.9212768 -27.59747417 14.81558359 -21.75 8.1875 C-21.22921875 7.57261719 -20.7084375 6.95773438 -20.171875 6.32421875 C-13.91103897 1.06556691 -8.03607448 -0.14611045 0 0 Z " fill="#091542" transform="translate(73,189.5)"/>
<path d="M0 0 C7.50726376 -0.12414067 15.01392224 -0.21459764 22.52197266 -0.2746582 C25.07285987 -0.29971127 27.62367595 -0.33376328 30.17431641 -0.37719727 C33.85336927 -0.43825144 37.53146821 -0.46630348 41.2109375 -0.48828125 C42.34050873 -0.51408768 43.47007996 -0.5398941 44.63388062 -0.56648254 C53.06922526 -0.56943122 59.83847766 1.14280115 66.14730835 6.99028015 C72.63573533 13.82131811 74.51787376 20.23835742 74.4375 29.4375 C74.45748047 30.24509766 74.47746094 31.05269531 74.49804688 31.88476562 C74.49247532 38.79906983 72.47645903 43.64985105 68.39453125 49.171875 C62.77892132 54.77361923 57.02357248 58.21191803 48.9375 58.25 C47.638125 58.1675 46.33875 58.085 45 58 C45 54.04 45 50.08 45 46 C47.35125 45.13375 47.35125 45.13375 49.75 44.25 C54.70307536 42.25617729 57.61681533 40.4897324 60.25 35.75 C62.02177126 29.25350537 61.26904374 24.65694882 58.36328125 18.76171875 C56.01562431 15.72792712 53.20266385 14.18619874 49.42460632 13.60127258 C48.51193497 13.59016953 47.59926361 13.57906647 46.65893555 13.56762695 C45.6182341 13.54783279 44.57753265 13.52803864 43.5052948 13.50764465 C42.3936647 13.50125473 41.28203461 13.49486481 40.13671875 13.48828125 C38.41603935 13.46135445 38.41603935 13.46135445 36.66059875 13.43388367 C33.00293636 13.379776 29.34540453 13.34588249 25.6875 13.3125 C23.20505996 13.27932744 20.72263714 13.24483785 18.24023438 13.20898438 C12.16025042 13.12404878 6.08030523 13.05723905 0 13 C0 8.71 0 4.42 0 0 Z " fill="#03193E" transform="translate(59,221)"/>
<path d="M0 0 C4.29 0.33 8.58 0.66 13 1 C13.09912916 8.68632272 13.17159374 16.37227046 13.21972656 24.05908203 C13.23979933 26.67210373 13.26706358 29.28508075 13.30175781 31.89794922 C13.35046435 35.66124522 13.37301311 39.42394549 13.390625 43.1875 C13.41127014 44.34926758 13.43191528 45.51103516 13.45318604 46.70800781 C13.45542193 54.85263094 12.16499286 59.87088117 7.140625 66.42578125 C0.3820192 73.17042299 -6.41203911 75.98494826 -16 76 C-25.66456582 75.29781886 -32.61090701 72.81206988 -39.3125 65.75 C-44.00108796 59.87329574 -45.47141347 53.38547767 -45 46 C-40.71 46 -36.42 46 -32 46 C-31.773125 47.19625 -31.54625 48.3925 -31.3125 49.625 C-30.12512763 54.27554177 -28.5227866 56.71206584 -25 60 C-19.57831257 62.39805406 -14.67956955 62.2917818 -9 61 C-4.81185001 59.17906522 -2.85340058 57.1701513 -1 53 C0.01529414 46.76696929 0.13216443 40.68006612 0.09765625 34.375 C0.0962413 33.38749756 0.09482635 32.39999512 0.09336853 31.38256836 C0.08780927 28.25501364 0.07526446 25.12753277 0.0625 22 C0.05747973 19.86849062 0.05291775 17.73698012 0.04882812 15.60546875 C0.03785321 10.40361775 0.02061697 5.20182136 0 0 Z " fill="#03183B" transform="translate(89,235)"/>
<path d="M0 0 C5.43209467 3.15772232 8.70581663 7.06276239 10.71484375 13.08984375 C10.71484375 16.05984375 10.71484375 19.02984375 10.71484375 22.08984375 C1.80484375 22.08984375 -7.10515625 22.08984375 -16.28515625 22.08984375 C-13.96264199 26.974799 -13.96264199 26.974799 -11.28515625 28.08984375 C-7.82703456 28.42322971 -7.82703456 28.42322971 -4.28515625 28.08984375 C-3.83398438 27.59355469 -3.3828125 27.09726562 -2.91796875 26.5859375 C-0.54374489 24.41051229 1.25023698 24.79109292 4.40234375 24.90234375 C5.89314453 24.94294922 5.89314453 24.94294922 7.4140625 24.984375 C8.17332031 25.01917969 8.93257813 25.05398438 9.71484375 25.08984375 C9.22811755 29.36713462 8.13688026 31.11042891 4.83984375 33.83984375 C4.14117187 34.4328125 3.4425 35.02578125 2.72265625 35.63671875 C-2.03156217 39.07751496 -7.67215069 38.5172709 -13.28515625 38.08984375 C-18.73386029 36.34214623 -22.07057433 32.69706213 -25.28515625 28.08984375 C-27.15656837 22.47560738 -27.36282476 15.49269922 -25.56640625 9.8203125 C-23.06904884 5.19818729 -19.57402642 2.39776956 -15.09765625 -0.16015625 C-10.02471255 -1.51294124 -4.96127105 -1.97602761 0 0 Z M-13.66015625 9.90234375 C-15.58331825 12.03704423 -15.58331825 12.03704423 -15.28515625 15.08984375 C-10.33515625 15.08984375 -5.38515625 15.08984375 -0.28515625 15.08984375 C-0.90642784 11.19142688 -0.90642784 11.19142688 -2.97265625 9.33984375 C-6.99476164 7.16573273 -9.99677772 7.10660751 -13.66015625 9.90234375 Z " fill="#6A1FAC" transform="translate(406.28515625,234.91015625)"/>
<path d="M0 0 C3.26099491 2.98571612 5.59633884 5.78901651 7 10 C7 13.3 7 16.6 7 20 C-1.58 20 -10.16 20 -19 20 C-17.66436384 24.94463635 -17.66436384 24.94463635 -15 26 C-11.54187831 26.33338596 -11.54187831 26.33338596 -8 26 C-7.54882812 25.50371094 -7.09765625 25.00742187 -6.6328125 24.49609375 C-4.25858864 22.32066854 -2.46460677 22.70124917 0.6875 22.8125 C2.17830078 22.85310547 2.17830078 22.85310547 3.69921875 22.89453125 C4.45847656 22.92933594 5.21773438 22.96414063 6 23 C5.24962244 27.87745412 3.7686086 29.74529257 0 33 C-5.49380677 36.86428781 -10.47656268 36.77865963 -17 36 C-21.89784082 34.37900642 -25.18499136 31.27464275 -28 27 C-30.72379747 21.13941049 -31.18911246 14.86943622 -29.27734375 8.6484375 C-26.78056654 3.25054669 -23.63398431 0.14521057 -18.125 -2.25 C-11.63061559 -3.80865226 -5.79456868 -3.36648019 0 0 Z M-19 10 C-19 10.99 -19 11.98 -19 13 C-14.38 13 -9.76 13 -5 13 C-4.67 11.68 -4.34 10.36 -4 9 C-6.34374538 6.83654273 -7.74584457 6.03785294 -10.9375 5.5625 C-14.72333678 6.10333383 -16.35565688 7.27788208 -19 10 Z " fill="#031B3A" transform="translate(258,237)"/>
<path d="M0 0 C4.15945828 2.92487803 7.05807161 5.92421483 8.6875 10.8125 C8.6875 14.1125 8.6875 17.4125 8.6875 20.8125 C0.1075 21.1425 -8.4725 21.4725 -17.3125 21.8125 C-15.8125 25.8125 -15.8125 25.8125 -13.3125 26.8125 C-9.85437831 27.14588596 -9.85437831 27.14588596 -6.3125 26.8125 C-5.86132812 26.31621094 -5.41015625 25.81992187 -4.9453125 25.30859375 C-2.57108864 23.13316854 -0.77710677 23.51374917 2.375 23.625 C3.86580078 23.66560547 3.86580078 23.66560547 5.38671875 23.70703125 C6.14597656 23.74183594 6.90523438 23.77664063 7.6875 23.8125 C6.92840586 28.69355695 5.50614482 30.5878666 1.6875 33.8125 C-3.43417851 37.26665527 -8.31688055 37.64522492 -14.3125 36.8125 C-19.6363889 35.11687785 -23.28451152 32.58740492 -26.3125 27.8125 C-29.0295533 21.94523997 -29.50330283 15.68743678 -27.58984375 9.4609375 C-25.11249109 4.10504147 -21.98185153 1.0258416 -16.5625 -1.4375 C-10.47670316 -2.84191466 -5.52655778 -3.27271019 0 0 Z M-17.3125 10.8125 C-17.3125 11.8025 -17.3125 12.7925 -17.3125 13.8125 C-12.3625 13.8125 -7.4125 13.8125 -2.3125 13.8125 C-1.9825 13.1525 -1.6525 12.4925 -1.3125 11.8125 C-4.61359455 7.89587023 -4.61359455 7.89587023 -9.3125 6.25 C-12.99335383 6.94016009 -14.71748953 8.1411657 -17.3125 10.8125 Z " fill="#6521A3" transform="translate(367.3125,236.1875)"/>
<path d="M0 0 C3.63 0 7.26 0 11 0 C14.33160505 7.54549287 17.05797655 14.97928527 19 23 C19.66 23 20.32 23 21 23 C21.103125 22.18144531 21.20625 21.36289062 21.3125 20.51953125 C22.12394144 16.36550433 23.48046199 12.62611386 25 8.6875 C25.27328125 7.95982422 25.5465625 7.23214844 25.828125 6.48242188 C27.85925752 1.14074248 27.85925752 1.14074248 29 0 C30.85287502 -0.07226502 32.70833878 -0.0838122 34.5625 -0.0625 C35.57441406 -0.05347656 36.58632813 -0.04445312 37.62890625 -0.03515625 C38.41136719 -0.02355469 39.19382812 -0.01195312 40 0 C38.03962049 6.168775 35.78522902 12.13553104 33.2421875 18.0859375 C32.7194072 19.32133774 32.7194072 19.32133774 32.18606567 20.58169556 C31.08559079 23.18084043 29.98054482 25.77800809 28.875 28.375 C27.76312565 30.99375036 26.65222977 33.61290993 25.54251099 36.23257446 C24.85503993 37.85474409 24.16618968 39.47633008 23.47579956 41.09725952 C21.85102449 44.92419252 20.41165281 48.73563779 19.125 52.6875 C17 55 17 55 14.35546875 55.3203125 C11.55470891 55.31312185 8.79219844 55.21332586 6 55 C7.60969929 49.84285915 9.82120761 45.19537809 12.26953125 40.390625 C14.11256719 31.83578437 8.13628821 22.26742988 4.8125 14.5625 C3.89743094 12.4409143 2.98703726 10.31730403 2.08203125 8.19140625 C1.68218018 7.26529541 1.2823291 6.33918457 0.87036133 5.38500977 C0 3 0 3 0 0 Z " fill="#041A3A" transform="translate(442,235)"/>
<path d="M0 0 C3.98978327 3.28570387 5.32833785 6.76385346 6.125 11.75 C6.21421618 13.64946303 6.25560798 15.5515692 6.2578125 17.453125 C6.25974609 19.04640625 6.25974609 19.04640625 6.26171875 20.671875 C6.25785156 21.77015625 6.25398438 22.8684375 6.25 24 C6.25580078 25.670625 6.25580078 25.670625 6.26171875 27.375 C6.26042969 28.43203125 6.25914062 29.4890625 6.2578125 30.578125 C6.25668457 31.5465332 6.25555664 32.51494141 6.25439453 33.51269531 C6.125 35.75 6.125 35.75 5.125 36.75 C3.62761876 36.8479057 2.12557108 36.87974864 0.625 36.875 C-0.1896875 36.87757813 -1.004375 36.88015625 -1.84375 36.8828125 C-3.875 36.75 -3.875 36.75 -4.875 35.75 C-4.97202769 33.93167096 -5.00702099 32.10995811 -5.015625 30.2890625 C-5.03496094 29.17789062 -5.05429687 28.06671875 -5.07421875 26.921875 C-5.10795862 24.56527519 -5.12629335 22.20840238 -5.12890625 19.8515625 C-5.15339844 18.7378125 -5.17789062 17.6240625 -5.203125 16.4765625 C-5.21714355 14.93863037 -5.21714355 14.93863037 -5.23144531 13.36962891 C-5.64232769 10.53903216 -5.64232769 10.53903216 -8.24902344 8.87646484 C-11.34932845 7.54652738 -12.71008068 7.72353968 -15.875 8.75 C-16.865 9.245 -16.865 9.245 -17.875 9.75 C-18.87007368 12.73522105 -19.05572036 14.9146228 -19.15625 18.0390625 C-19.19363281 19.06257813 -19.23101562 20.08609375 -19.26953125 21.140625 C-19.34009824 23.30467922 -19.41040891 25.46874181 -19.48046875 27.6328125 C-19.51785156 28.65375 -19.55523437 29.6746875 -19.59375 30.7265625 C-19.63918945 32.13542725 -19.63918945 32.13542725 -19.68554688 33.57275391 C-19.875 35.75 -19.875 35.75 -20.875 36.75 C-22.39428038 36.82179964 -23.91667482 36.83392007 -25.4375 36.8125 C-26.26378906 36.80347656 -27.09007812 36.79445313 -27.94140625 36.78515625 C-28.57949219 36.77355469 -29.21757812 36.76195312 -29.875 36.75 C-31.08087804 33.13236588 -31.01832385 29.8198945 -31.0078125 26.0546875 C-31.00876923 25.30663849 -31.00972595 24.55858948 -31.01071167 23.78787231 C-31.01139143 22.20932938 -31.00955137 20.63078364 -31.00537109 19.05224609 C-31.0000049 16.62721545 -31.00533064 14.20236875 -31.01171875 11.77734375 C-31.01105823 10.24479126 -31.0097776 8.71223888 -31.0078125 7.1796875 C-31.00983673 6.45055145 -31.01186096 5.72141541 -31.01394653 4.97018433 C-30.9899618 -0.1350382 -30.9899618 -0.1350382 -29.875 -1.25 C-28.18891034 -1.32205511 -26.49999341 -1.33386068 -24.8125 -1.3125 C-23.89339844 -1.30347656 -22.97429687 -1.29445312 -22.02734375 -1.28515625 C-21.31707031 -1.27355469 -20.60679687 -1.26195312 -19.875 -1.25 C-19.545 -0.59 -19.215 0.07 -18.875 0.75 C-17.905625 0.234375 -16.93625 -0.28125 -15.9375 -0.8125 C-10.47735236 -3.14939889 -5.34124166 -2.32227898 0 0 Z " fill="#041A3A" transform="translate(327.875,236.25)"/>
<path d="M0 0 C3.98978327 3.28570387 5.32833785 6.76385346 6.125 11.75 C6.21421618 13.64946303 6.25560798 15.5515692 6.2578125 17.453125 C6.25974609 19.04640625 6.25974609 19.04640625 6.26171875 20.671875 C6.25785156 21.77015625 6.25398438 22.8684375 6.25 24 C6.25580078 25.670625 6.25580078 25.670625 6.26171875 27.375 C6.26042969 28.43203125 6.25914062 29.4890625 6.2578125 30.578125 C6.25668457 31.5465332 6.25555664 32.51494141 6.25439453 33.51269531 C6.125 35.75 6.125 35.75 5.125 36.75 C3.62761876 36.8479057 2.12557108 36.87974864 0.625 36.875 C-0.1896875 36.87757813 -1.004375 36.88015625 -1.84375 36.8828125 C-3.875 36.75 -3.875 36.75 -4.875 35.75 C-4.97202769 33.93167096 -5.00702099 32.10995811 -5.015625 30.2890625 C-5.03496094 29.17789062 -5.05429688 28.06671875 -5.07421875 26.921875 C-5.10795862 24.56527519 -5.12629335 22.20840238 -5.12890625 19.8515625 C-5.15339844 18.7378125 -5.17789063 17.6240625 -5.203125 16.4765625 C-5.21714355 14.93863037 -5.21714355 14.93863037 -5.23144531 13.36962891 C-5.64201199 10.54537152 -5.64201199 10.54537152 -8.21777344 8.88818359 C-11.61068719 7.4348793 -13.3935771 7.5895257 -16.875 8.75 C-18.98736917 11.88402033 -19.17037027 14.67160178 -19.2890625 18.390625 C-19.34707031 19.99550781 -19.34707031 19.99550781 -19.40625 21.6328125 C-19.45265625 23.29957031 -19.45265625 23.29957031 -19.5 25 C-19.55800781 26.68996094 -19.55800781 26.68996094 -19.6171875 28.4140625 C-19.71137336 31.19254548 -19.79699586 33.97102334 -19.875 36.75 C-21.35406892 36.77689216 -22.83327483 36.79634621 -24.3125 36.8125 C-25.13621094 36.82410156 -25.95992187 36.83570313 -26.80859375 36.84765625 C-28.875 36.75 -28.875 36.75 -29.875 35.75 C-29.96358646 33.01105915 -29.99023479 30.2974673 -29.97265625 27.55859375 C-29.9712413 26.73875504 -29.96982635 25.91891632 -29.96836853 25.07423401 C-29.96275289 22.44528618 -29.95019779 19.81642227 -29.9375 17.1875 C-29.93248701 15.40950643 -29.92792376 13.63151154 -29.92382812 11.85351562 C-29.91277839 7.48564455 -29.89550331 3.11783652 -29.875 -1.25 C-26.575 -1.25 -23.275 -1.25 -19.875 -1.25 C-19.545 -0.59 -19.215 0.07 -18.875 0.75 C-17.905625 0.234375 -16.93625 -0.28125 -15.9375 -0.8125 C-10.47735236 -3.14939889 -5.34124166 -2.32227898 0 0 Z " fill="#031A3A" transform="translate(190.875,236.25)"/>
<path d="M0 0 C0 2.97 0 5.94 0 9 C-1.65 9.33 -3.3 9.66 -5 10 C-5.33 11.65 -5.66 13.3 -6 15 C-3.69 15 -1.38 15 1 15 C1.09765625 21.15234375 1.09765625 21.15234375 1 23 C0.67 23.33 0.34 23.66 0 24 C-1.98 24 -3.96 24 -6 24 C-6 33.57 -6 43.14 -6 53 C-9.3 53 -12.6 53 -16 53 C-17.101173 49.69648101 -17.03109831 47.48612828 -16.87890625 44.01953125 C-16.83056641 42.85615234 -16.78222656 41.69277344 -16.73242188 40.49414062 C-16.67634766 39.27919922 -16.62027344 38.06425781 -16.5625 36.8125 C-16.51029297 35.58595703 -16.45808594 34.35941406 -16.40429688 33.09570312 C-16.27451599 30.06354982 -16.13954569 27.03171706 -16 24 C-17.65 23.67 -19.3 23.34 -21 23 C-20.67 20.36 -20.34 17.72 -20 15 C-19.01 14.67 -18.02 14.34 -17 14 C-16.50964244 12.00587925 -16.02380616 10.01020611 -15.5859375 8.00390625 C-14.74086574 5.11376082 -13.39245475 3.7772521 -11 2 C-7.24392446 0.02311814 -4.21207658 -0.19591054 0 0 Z " fill="#031A3C" transform="translate(440,220)"/>
<path d="M0 0 C3.3 0 6.6 0 10 0 C10.33 2.64 10.66 5.28 11 8 C13.64 8.33 16.28 8.66 19 9 C19.09765625 15.15234375 19.09765625 15.15234375 19 17 C18.67 17.33 18.34 17.66 18 18 C15.36 18 12.72 18 10 18 C10.33 23.94 10.66 29.88 11 36 C14.465 36.495 14.465 36.495 18 37 C19 38 19 38 19.1328125 39.8125 C19.13023437 40.534375 19.12765625 41.25625 19.125 42 C19.12886719 43.0828125 19.12886719 43.0828125 19.1328125 44.1875 C19 46 19 46 18 47 C12.18420581 47.40108925 8.20096502 46.95741148 3 44 C-1.06979072 39.32727732 -0.34051101 34.02938177 -0.1875 28.1875 C-0.17396484 27.20845703 -0.16042969 26.22941406 -0.14648438 25.22070312 C-0.11125312 22.81323375 -0.06199265 20.40690436 0 18 C-1.65 17.67 -3.3 17.34 -5 17 C-5 14.36 -5 11.72 -5 9 C-3.35 9 -1.7 9 0 9 C0 6.03 0 3.06 0 0 Z " fill="#031B3B" transform="translate(206,226)"/>
<path d="M0 0 C0 4.29 0 8.58 0 13 C-1.216875 13.2475 -2.43375 13.495 -3.6875 13.75 C-8.23364506 14.89257097 -11.547123 16.68767464 -14.109375 20.765625 C-15.91427809 25.29371521 -15.52504559 30.22336572 -15 35 C-12.9667971 39.06640581 -10.31770687 41.91927219 -7 45 C-8.98 45 -10.96 45 -13 45 C-13 44.34 -13 43.68 -13 43 C-14.299375 42.7215625 -14.299375 42.7215625 -15.625 42.4375 C-21.04439929 40.12923734 -23.79871251 35.80193124 -27 31 C-27 30.01 -27 29.02 -27 28 C-27.66 28 -28.32 28 -29 28 C-29.66109151 20.86021175 -28.00350835 15.95194704 -24 10 C-17.23292535 2.29505787 -10.09197077 -0.54064129 0 0 Z " fill="#2A0B6C" transform="translate(42,221)"/>
<path d="M0 0 C6.28861529 4.7703359 9.78155033 11.27492104 11.39453125 18.9609375 C11.6875 21.4375 11.6875 21.4375 11.8125 25.1875 C7.5225 25.1875 3.2325 25.1875 -1.1875 25.1875 C-1.7753125 23.1146875 -1.7753125 23.1146875 -2.375 21 C-3.85177311 16.63149909 -5.41837388 14.01434459 -9.1875 11.1875 C-14.55953553 8.91471574 -19.5983856 8.60222392 -25.1875 10.1875 C-28.92290632 12.31747637 -31.67513187 15.10410604 -33.1875 19.1875 C-33.8475 18.8575 -34.5075 18.5275 -35.1875 18.1875 C-32.38064578 9.98157915 -29.19491919 3.38868281 -21.5625 -1.1875 C-13.88081925 -4.88608703 -7.31610963 -4.53532588 0 0 Z " fill="#2A0D67" transform="translate(91.1875,193.8125)"/>
<path d="M0 0 C4.29 0 8.58 0 13 0 C13.3403125 1.794375 13.3403125 1.794375 13.6875 3.625 C14.87487237 8.27554177 16.4772134 10.71206584 20 14 C25.40911899 16.39249494 30.33174731 16.30805831 36 15 C39.59953076 13.31511326 40.77518918 12.33721622 43 9 C43.66 9 44.32 9 45 9 C44.18029265 15.96751244 40.03726246 20.42138937 34.7890625 24.67578125 C29.90663599 28.28962969 26.0898962 29.81198616 20 29 C12.6924205 26.45413359 7.21543285 22.52221138 3 16 C0.43696348 10.68169922 -0.37378042 5.85589323 0 0 Z " fill="#2C0A70" transform="translate(44,281)"/>
<path d="M0 0 C6.51937801 0.27164075 10.20127672 2.67173978 15 7 C20.22875986 12.77915563 22.2589889 18.19501621 22 26 C20.12829219 32.97523109 14.89793261 38.58427943 8.86328125 42.32421875 C3.42456615 45.02933883 -0.97443915 45.38257529 -7 45 C-7 41.04 -7 37.08 -7 33 C-5.4325 32.4225 -3.865 31.845 -2.25 31.25 C2.70307536 29.25617729 5.61681533 27.4897324 8.25 22.75 C10.0101032 16.29628825 9.39129378 11.53504387 6.22265625 5.765625 C4.51616801 3.30130332 2.47929577 1.65286385 0 0 Z " fill="#2D0A72" transform="translate(111,234)"/>
<path d="M0 0 C0 3.3 0 6.6 0 10 C-3.41796875 10.5859375 -3.41796875 10.5859375 -6.8359375 11.171875 C-9.11677819 11.7990693 -9.11677819 11.7990693 -10.12524414 13.75830078 C-11.10080369 16.25832528 -11.21615033 18.0209926 -11.16015625 20.6953125 C-11.14919922 21.57574219 -11.13824219 22.45617187 -11.12695312 23.36328125 C-11.10568359 24.27464844 -11.08441406 25.18601562 -11.0625 26.125 C-11.02813415 27.9400259 -10.99797807 29.7551379 -10.97265625 31.5703125 C-10.95468994 32.37227051 -10.93672363 33.17422852 -10.91821289 34.00048828 C-11 36 -11 36 -12 38 C-13.47906892 38.02689216 -14.95827483 38.04634621 -16.4375 38.0625 C-17.26121094 38.07410156 -18.08492188 38.08570313 -18.93359375 38.09765625 C-21 38 -21 38 -22 37 C-22.08858646 34.26105915 -22.11523479 31.5474673 -22.09765625 28.80859375 C-22.0962413 27.98875504 -22.09482635 27.16891632 -22.09336853 26.32423401 C-22.08775289 23.69528618 -22.07519779 21.06642227 -22.0625 18.4375 C-22.05748701 16.65950643 -22.05292376 14.88151154 -22.04882812 13.10351562 C-22.03777839 8.73564455 -22.02050331 4.36783652 -22 0 C-18.7 0 -15.4 0 -12 0 C-11.67 0.99 -11.34 1.98 -11 3 C-10.13375 2.2884375 -10.13375 2.2884375 -9.25 1.5625 C-5.77732026 -0.84908315 -4.04234823 -1.34744941 0 0 Z " fill="#041B3B" transform="translate(293,235)"/>
<path d="M0 0 C1.5625 1 1.5625 1 3 3 C2.78041643 4.92606163 2.55280585 6.85175281 2.27319336 8.77001953 C1.83709533 12.32973302 1.94123308 15.85738816 2 19.4375 C2.06459456 27.48892579 1.87214205 35.5170058 1.5625 43.5625 C1.52318359 44.66327881 1.48386719 45.76405762 1.44335938 46.89819336 C1.40146484 47.92307861 1.35957031 48.94796387 1.31640625 50.00390625 C1.27974854 50.91986572 1.24309082 51.8358252 1.20532227 52.77954102 C1 55 1 55 0 57 C-1.98 57 -3.96 57 -6 57 C-6.05079385 50.13154261 -6.08577306 43.26313385 -6.10986328 36.39453125 C-6.11990831 34.05890086 -6.13354677 31.723283 -6.15087891 29.38769531 C-6.17519277 26.02666119 -6.18649827 22.66579366 -6.1953125 19.3046875 C-6.20563507 18.26384003 -6.21595764 17.22299255 -6.22659302 16.15060425 C-6.2273819 11.02983621 -6.0629386 6.78972941 -4 2 C-3.01 2 -2.02 2 -1 2 C-0.67 1.34 -0.34 0.68 0 0 Z " fill="#02193D" transform="translate(55,202)"/>
<path d="M0 0 C1.37478516 0.01740234 1.37478516 0.01740234 2.77734375 0.03515625 C3.69644531 0.04417969 4.61554688 0.05320313 5.5625 0.0625 C6.27277344 0.07410156 6.98304688 0.08570313 7.71484375 0.09765625 C7.73949303 5.34871067 7.75767943 10.5997317 7.76977539 15.85083008 C7.77481593 17.63859646 7.78164829 19.4263587 7.7902832 21.21411133 C7.80236105 23.77816793 7.80807469 26.34217022 7.8125 28.90625 C7.81766129 29.71041855 7.82282257 30.5145871 7.82814026 31.34312439 C7.8283359 33.2616734 7.77686358 35.18010993 7.71484375 37.09765625 C6.71484375 38.09765625 6.71484375 38.09765625 4.6484375 38.1953125 C3.82472656 38.18371094 3.00101563 38.17210937 2.15234375 38.16015625 C1.32605469 38.15113281 0.49976563 38.14210938 -0.3515625 38.1328125 C-0.98964844 38.12121094 -1.62773437 38.10960937 -2.28515625 38.09765625 C-3.49103429 34.48002213 -3.4284801 31.16755075 -3.41796875 27.40234375 C-3.41892548 26.65429474 -3.4198822 25.90624573 -3.42086792 25.13552856 C-3.42154768 23.55698563 -3.41970762 21.97843989 -3.41552734 20.39990234 C-3.41016115 17.9748717 -3.41548689 15.550025 -3.421875 13.125 C-3.42121448 11.59244751 -3.41993385 10.05989513 -3.41796875 8.52734375 C-3.41999298 7.7982077 -3.42201721 7.06907166 -3.42410278 6.31784058 C-3.39510272 0.14508986 -3.39510272 0.14508986 0 0 Z " fill="#021939" transform="translate(145.28515625,234.90234375)"/>
<path d="M0 0 C4.29 0 8.58 0 13 0 C14.125 11.75 14.125 11.75 13 14 C5.49220874 13.98364882 -2.01460487 13.9286066 -9.52197266 13.84741211 C-12.07268941 13.82430018 -14.62350068 13.80985249 -17.17431641 13.80444336 C-20.85378457 13.79510461 -24.53178 13.75400181 -28.2109375 13.70703125 C-29.34050873 13.7109639 -30.47007996 13.71489655 -31.63388062 13.71894836 C-39.04133882 13.58426668 -44.82241983 12.2547317 -51 8 C-51.33 7.34 -51.66 6.68 -52 6 C-51.01 6.33 -50.02 6.66 -49 7 C-47.62566569 7.04278083 -46.24940127 7.04057273 -44.875 7 C-43.59625 7 -42.3175 7 -41 7 C-40.67 7.33 -40.34 7.66 -40 8 C-37.05299745 8.10558281 -34.13487813 8.14005548 -31.1875 8.125 C-30.27782471 8.12306641 -29.36814941 8.12113281 -28.4309082 8.11914062 C-15.94700104 8.04426838 -3.47222782 7.51179283 9 7 C9 5.02 9 3.04 9 1 C6.03 1 3.06 1 0 1 C0 0.67 0 0.34 0 0 Z " fill="#0E133E" transform="translate(74,266)"/>
<path d="M0 0 C3.60555161 2.14742412 6.51272489 4.34569199 8.6875 8.015625 C8.3575 8.675625 8.0275 9.335625 7.6875 10.015625 C6.6975 10.015625 5.7075 10.015625 4.6875 10.015625 C3.6975 10.510625 3.6975 10.510625 2.6875 11.015625 C2.03194881 13.54295735 2.03194881 13.54295735 1.6875 16.015625 C-1.05776635 14.64299183 -1.75605648 12.60969753 -3.3125 10.015625 C-6.0584726 8.6426387 -8.2714047 8.89149866 -11.3125 9.015625 C-12.3025 9.345625 -13.2925 9.675625 -14.3125 10.015625 C-15.53119929 12.52010016 -15.53119929 12.52010016 -16.3125 15.015625 C-16.6425 15.015625 -16.9725 15.015625 -17.3125 15.015625 C-16.4375 8.265625 -16.4375 8.265625 -15.3125 6.015625 C-14.6525 6.015625 -13.9925 6.015625 -13.3125 6.015625 C-12.9825 4.695625 -12.6525 3.375625 -12.3125 2.015625 C-16.80615277 3.83016412 -19.70900543 5.03494633 -22.3125 9.265625 C-22.6425 10.173125 -22.9725 11.080625 -23.3125 12.015625 C-23.9725 12.015625 -24.6325 12.015625 -25.3125 12.015625 C-24.82320678 7.77508375 -22.34857577 4.83089526 -19.3125 2.015625 C-13.38259858 -1.47255231 -6.48043527 -2.75856366 0 0 Z " fill="#6821AA" transform="translate(406.3125,234.984375)"/>
<path d="M0 0 C3.63 0 7.26 0 11 0 C9.74325265 6.28373673 7.51121526 8.30638971 2.3125 11.8125 C-3.04423876 13.73284031 -8.59366608 13.80211131 -14 12 C-14 11.01 -14 10.02 -14 9 C-14.99 9 -15.98 9 -17 9 C-17 8.34 -17 7.68 -17 7 C-17.99 6.67 -18.98 6.34 -20 6 C-19.67 4.68 -19.34 3.36 -19 2 C-17.68 1.67 -16.36 1.34 -15 1 C-15 1.99 -15 2.98 -15 4 C-10.71 4.33 -6.42 4.66 -2 5 C-1.34 3.35 -0.68 1.7 0 0 Z " fill="#6721A8" transform="translate(364,260)"/>
<path d="M0 0 C0 3.63 0 7.26 0 11 C-2.97 10.67 -5.94 10.34 -9 10 C-9 8.68 -9 7.36 -9 6 C-9.66 5.67 -10.32 5.34 -11 5 C-11.33 6.65 -11.66 8.3 -12 10 C-15 10 -15 10 -17 9 C-17.33 10.98 -17.66 12.96 -18 15 C-19.65 15.33 -21.3 15.66 -23 16 C-23.69140625 13.7578125 -23.69140625 13.7578125 -24 11 C-18.31996494 1.09169603 -10.6432727 -0.38938803 0 0 Z " fill="#310973" transform="translate(41,222)"/>
<path d="M0 0 C6.51937801 0.27164075 10.20127672 2.67173978 15 7 C18.98140925 11.40050496 21.14255241 15.13988601 21.75 21.0625 C21.89695313 22.34833984 21.89695313 22.34833984 22.046875 23.66015625 C22 26 22 26 20 29 C19.67 25.37 19.34 21.74 19 18 C18.01 18.33 17.02 18.66 16 19 C14.68 19 13.36 19 12 19 C12 19.99 12 20.98 12 22 C9.29209746 27.95738559 6.87165071 30.177091 1 33 C0.67 32.34 0.34 31.68 0 31 C0.928125 30.484375 1.85625 29.96875 2.8125 29.4375 C6.51251617 26.9445813 7.71175361 24.29415465 9 20 C9.70193351 13.68259839 8.6396208 9.25593802 5 4 C2.43190172 1.5404226 2.43190172 1.5404226 0 0 Z " fill="#270E65" transform="translate(111,234)"/>
<path d="M0 0 C2 3 2 3 2 12 C-6.91 12 -15.82 12 -25 12 C-22.67748574 16.88495525 -22.67748574 16.88495525 -20 18 C-16.54187831 18.33338596 -16.54187831 18.33338596 -13 18 C-12.54882812 17.50371094 -12.09765625 17.00742187 -11.6328125 16.49609375 C-9.25858864 14.32066854 -7.46460677 14.70124917 -4.3125 14.8125 C-3.31863281 14.83957031 -2.32476562 14.86664063 -1.30078125 14.89453125 C-0.54152344 14.92933594 0.21773438 14.96414063 1 15 C0.6875 17.375 0.6875 17.375 0 20 C-0.99 20.66 -1.98 21.32 -3 22 C-3 20.35 -3 18.7 -3 17 C-5.31 17 -7.62 17 -10 17 C-10.66 18.32 -11.32 19.64 -12 21 C-14.0839403 20.88556397 -16.16716493 20.75804453 -18.25 20.625 C-19.41015625 20.55539062 -20.5703125 20.48578125 -21.765625 20.4140625 C-24.70694334 20.03751692 -26.49949011 19.5225877 -29 18 C-29 17.34 -29 16.68 -29 16 C-29.99 16 -30.98 16 -32 16 C-32.33 17.32 -32.66 18.64 -33 20 C-34.95031692 15.92276266 -35.21581971 12.68307578 -35.125 8.1875 C-35.10695313 7.02605469 -35.08890625 5.86460937 -35.0703125 4.66796875 C-35.04710937 3.78753906 -35.02390625 2.90710938 -35 2 C-34.67 2 -34.34 2 -34 2 C-33.67 5.96 -33.34 9.92 -33 14 C-31.35 14.33 -29.7 14.66 -28 15 C-27.67 13.35 -27.34 11.7 -27 10 C-18.09 10 -9.18 10 0 10 C0 6.7 0 3.4 0 0 Z " fill="#602996" transform="translate(415,245)"/>
<path d="M0 0 C6.53447129 3.44874874 9.60987724 8.06864399 12 15 C12.1875 18.9375 12.1875 18.9375 12 22 C9.03 22 6.06 22 3 22 C3.061875 21.05125 3.12375 20.1025 3.1875 19.125 C3.0946875 17.578125 3.0946875 17.578125 3 16 C2.01 15.34 1.02 14.68 0 14 C0 13.01 0 12.02 0 11 C-0.99 10.67 -1.98 10.34 -3 10 C-2 8 -2 8 0 5 C0.16713569 2.37468476 0.16713569 2.37468476 0 0 Z " fill="#2E0974" transform="translate(88,195)"/>
<path d="M0 0 C1.56512329 -0.01933594 1.56512329 -0.01933594 3.16186523 -0.0390625 C8.28217148 -0.04578592 12.52424967 0.12373963 17.3125 2.1875 C17.3125 2.8475 17.3125 3.5075 17.3125 4.1875 C15.6625 4.5175 14.0125 4.8475 12.3125 5.1875 C12.3125 4.5275 12.3125 3.8675 12.3125 3.1875 C11.27738281 3.27128906 10.24226563 3.35507813 9.17578125 3.44140625 C-5.8104402 4.50540584 -20.69346555 3.87137312 -35.6875 3.1875 C-36.0175 5.4975 -36.3475 7.8075 -36.6875 10.1875 C-37.3475 10.1875 -38.0075 10.1875 -38.6875 10.1875 C-38.6875 7.2175 -38.6875 4.2475 -38.6875 1.1875 C-25.79561853 0.56404695 -12.90787015 0.07683828 0 0 Z " fill="#111452" transform="translate(99.6875,221.8125)"/>
<path d="M0 0 C6.875 0.875 6.875 0.875 8 2 C8.09340434 3.62674778 8.11745171 5.25754051 8.11352539 6.88696289 C8.11344986 7.92796646 8.11337433 8.96897003 8.11329651 10.04151917 C8.10813522 11.1737944 8.10297394 12.30606964 8.09765625 13.47265625 C8.0962413 14.62543564 8.09482635 15.77821503 8.09336853 16.96592712 C8.08775005 20.66481064 8.07519442 24.36363464 8.0625 28.0625 C8.05748738 30.56315017 8.05292406 33.06380129 8.04882812 35.56445312 C8.03777462 41.70965588 8.02101852 47.85482369 8 54 C6.515 54.495 6.515 54.495 5 55 C4.16013957 45.35117061 3.8412355 35.79826026 3.86962891 26.11938477 C3.87507188 23.90829865 3.86960071 21.69740879 3.86328125 19.48632812 C3.86394084 18.06249956 3.86521953 16.63867111 3.8671875 15.21484375 C3.86831543 13.94761475 3.86944336 12.68038574 3.87060547 11.37475586 C3.98289859 8.44602426 4.31806365 5.84185293 5 3 C3.02 3 1.04 3 -1 3 C-0.67 2.01 -0.34 1.02 0 0 Z " fill="#181357" transform="translate(93,237)"/>
<path d="M0 0 C0.66 0.33 1.32 0.66 2 1 C4.03297496 1.06069687 6.06788899 1.06029003 8.1015625 1.03125 C16.20351909 0.97327536 24.2788846 1.21602608 32.375 1.5 C33.80468024 1.54839218 35.23436774 1.59657024 36.6640625 1.64453125 C40.10946183 1.76056577 43.55475529 1.8794517 47 2 C47.495 3.485 47.495 3.485 48 5 C41.86192448 5.07439398 35.72411392 5.12871769 29.58569336 5.16479492 C27.4993838 5.17984159 25.41310567 5.20028382 23.3269043 5.22631836 C20.32072169 5.26288295 17.31495888 5.2797679 14.30859375 5.29296875 C12.91911781 5.31619453 12.91911781 5.31619453 11.50157166 5.33988953 C5.88119505 5.3413361 2.00329498 4.59596454 -3 2 C-2.01 1.34 -1.02 0.68 0 0 Z " fill="#181356" transform="translate(32,273)"/>
<path d="M0 0 C1.67299959 0.65061095 3.33859237 1.32033324 5 2 C5.721875 2.268125 6.44375 2.53625 7.1875 2.8125 C9.75005725 4.49141682 10.1867009 6.08567823 11 9 C11.125 11.8125 11.125 11.8125 11 14 C10.34 14 9.68 14 9 14 C9 14.66 9 15.32 9 16 C6.70858714 16.05384521 4.41681812 16.09272087 2.125 16.125 C0.84882813 16.14820313 -0.42734375 16.17140625 -1.7421875 16.1953125 C-5 16 -5 16 -7 14 C-7 13.34 -7 12.68 -7 12 C-3.49223216 10.39644899 -0.85645121 9.77963136 3 10 C2.42547254 6.06924356 2.42547254 6.06924356 0 3 C0 2.01 0 1.02 0 0 Z " fill="#6920AD" transform="translate(364,239)"/>
<path d="M0 0 C3.625 0.25 3.625 0.25 5.625 1.3125 C7.27702607 4.51330051 6.54506911 6.87641327 5.625 10.25 C3.32777926 12.21904635 2.06496486 12.26073085 -0.9375 12.1875 C-3.375 11.25 -3.375 11.25 -5.3125 9 C-6.375 6.25 -6.375 6.25 -5.625 3.5 C-3.83851931 0.28433476 -3.83851931 0.28433476 0 0 Z " fill="#071A32" transform="translate(147.375,219.75)"/>
<path d="M0 0 C7.5988673 -0.04944455 15.1976409 -0.08574104 22.79663086 -0.10986328 C25.38160839 -0.11991967 27.96657455 -0.13356649 30.55151367 -0.15087891 C34.26744392 -0.17514271 37.98322373 -0.18648684 41.69921875 -0.1953125 C42.85459641 -0.20563507 44.00997406 -0.21595764 45.20036316 -0.22659302 C46.28110611 -0.22674408 47.36184906 -0.22689514 48.4753418 -0.22705078 C49.89764351 -0.23371262 49.89764351 -0.23371262 51.34867859 -0.24050903 C54.22296496 0.0202258 56.38686812 0.80445576 59 2 C55.98968256 2.93423645 55.13349732 3.04449911 52 2 C50.3584155 1.91261102 48.71348378 1.88233379 47.06958008 1.88647461 C45.56836357 1.88658791 45.56836357 1.88658791 44.03681946 1.88670349 C42.95861435 1.89186478 41.88040924 1.89702606 40.76953125 1.90234375 C39.66397385 1.9037587 38.55841644 1.90517365 37.4193573 1.90663147 C33.88371083 1.91223486 30.34812738 1.92478796 26.8125 1.9375 C24.41731862 1.94251456 22.02213625 1.94707754 19.62695312 1.95117188 C13.75128053 1.96220539 7.87564477 1.97894684 2 2 C2 4.97 2 7.94 2 11 C2.66 11 3.32 11 4 11 C4.33 10.34 4.66 9.68 5 9 C4.67 10.32 4.34 11.64 4 13 C2.68 13 1.36 13 0 13 C0 8.71 0 4.42 0 0 Z " fill="#11113D" transform="translate(59,221)"/>
<path d="M0 0 C0.66 0 1.32 0 2 0 C2 16.17 2 32.34 2 49 C4.31 49 6.62 49 9 49 C9 49.66 9 50.32 9 51 C2.84765625 51.09765625 2.84765625 51.09765625 1 51 C0 50 0 50 -0.12025452 47.98155212 C-0.11803391 47.09552811 -0.11581329 46.20950409 -0.11352539 45.29663086 C-0.11344986 44.29566879 -0.11337433 43.29470673 -0.11329651 42.26341248 C-0.10813522 41.1748848 -0.10297394 40.08635712 -0.09765625 38.96484375 C-0.0962413 37.85645645 -0.09482635 36.74806915 -0.09336853 35.60609436 C-0.08775033 32.04986931 -0.07519475 28.49370617 -0.0625 24.9375 C-0.05748734 22.53320403 -0.05292403 20.12890708 -0.04882812 17.72460938 C-0.03777499 11.81638496 -0.02101917 5.9081969 0 0 Z " fill="#201164" transform="translate(46,211)"/>
<path d="M0 0 C3.96 0 7.92 0 12 0 C12 18.15 12 36.3 12 55 C10 53 10 53 9.75949097 50.86129761 C9.76393219 49.9774942 9.76837341 49.0936908 9.77294922 48.18310547 C9.77310028 47.18221893 9.77325134 46.1813324 9.77340698 45.15011597 C9.78372955 44.06674957 9.79405212 42.98338318 9.8046875 41.8671875 C9.8075174 40.76021515 9.81034729 39.6532428 9.81326294 38.51272583 C9.82448481 34.96670863 9.84959309 31.42094125 9.875 27.875 C9.8850272 25.47526406 9.8941535 23.07552417 9.90234375 20.67578125 C9.92443068 14.78376849 9.95792793 8.89190209 10 3 C7.69 2.67 5.38 2.34 3 2 C2.67 2.66 2.34 3.32 2 4 C3.98 4 5.96 4 8 4 C7.67 5.32 7.34 6.64 7 8 C7 7.01 7 6.02 7 5 C5.02 5 3.04 5 1 5 C0.67 3.35 0.34 1.7 0 0 Z " fill="#0B113E" transform="translate(90,236)"/>
<path d="M0 0 C4.6042868 1.93905367 8.41843637 4.64361138 11 9 C10.67 9.66 10.34 10.32 10 11 C9.01 10.34 8.02 9.68 7 9 C7 8.34 7 7.68 7 7 C0.43295784 4.21398211 -5.94248943 2.74289585 -13 2 C-8.72141069 -0.85239287 -5.0219238 -0.73545925 0 0 Z M0.75 7.375 C1.73484375 7.48585937 2.7196875 7.59671875 3.734375 7.7109375 C4.48203125 7.80632812 5.2296875 7.90171875 6 8 C6 11.38023517 5.12544378 13.83468937 4 17 C2 16 2 16 0.875 13.5625 C-1.88169995 9.79501007 -4.48585341 9.81402643 -9 9 C-5.55824478 6.85300031 -3.2279708 6.90143205 0.75 7.375 Z " fill="#5F2598" transform="translate(404,234)"/>
<path d="M0 0 C1.24523437 0.02707031 2.49046875 0.05414063 3.7734375 0.08203125 C4.71445313 0.11683594 5.65546875 0.15164062 6.625 0.1875 C6.05652344 0.455625 5.48804687 0.72375 4.90234375 1 C1.7286621 2.65488717 -1.12383927 4.70843167 -4.05859375 6.75 C-6.42818844 8.22050733 -8.76147882 9.22874796 -11.375 10.1875 C-11.045 8.8675 -10.715 7.5475 -10.375 6.1875 C-11.5196875 6.7134375 -11.5196875 6.7134375 -12.6875 7.25 C-15.375 8.1875 -15.375 8.1875 -18.375 7.1875 C-12.42201679 2.1099555 -7.92567822 -0.22431165 0 0 Z " fill="#051738" transform="translate(70.375,189.8125)"/>
<path d="M0 0 C2.31 0.33 4.62 0.66 7 1 C7.33 2.65 7.66 4.3 8 6 C8.66 6 9.32 6 10 6 C10.53251766 7.91345327 11.05059483 9.8309295 11.5625 11.75 C11.85253906 12.81734375 12.14257812 13.8846875 12.44140625 14.984375 C13.34943355 19.88645245 11.8126002 23.02413298 9.3203125 27.31640625 C7.05669976 30.20284735 4.27446769 31.42573669 1 33 C0.67 32.34 0.34 31.68 0 31 C0.928125 30.484375 1.85625 29.96875 2.8125 29.4375 C6.51251617 26.9445813 7.71175361 24.29415465 9 20 C9.70193351 13.68259839 8.6396208 9.25593802 5 4 C2.43190172 1.5404226 2.43190172 1.5404226 0 0 Z " fill="#290F5E" transform="translate(111,234)"/>
<path d="M0 0 C2.31 0 4.62 0 7 0 C7 3.63 7 7.26 7 11 C4.03 10.67 1.06 10.34 -2 10 C-1.67 9.34 -1.34 8.68 -1 8 C1.5625 7.375 1.5625 7.375 4 7 C4 5.68 4 4.36 4 3 C-3.08630655 4.16037766 -3.08630655 4.16037766 -9 8 C-9.66 7.67 -10.32 7.34 -11 7 C-7.39042389 3.7089159 -4.87362847 2.45336079 0 2 C0 1.34 0 0.68 0 0 Z " fill="#401586" transform="translate(34,222)"/>
<path d="M0 0 C-0.33 0.66 -0.66 1.32 -1 2 C-2.32 2 -3.64 2 -5 2 C-5.226875 2.598125 -5.45375 3.19625 -5.6875 3.8125 C-7 6 -7 6 -9.5625 7.4375 C-10.7690625 8.2109375 -10.7690625 8.2109375 -12 9 C-12.35919668 10.66128463 -12.68911632 12.32900023 -13 14 C-14.52445565 16.149059 -16.24466884 18.02525244 -18 20 C-18.33 20.66 -18.66 21.32 -19 22 C-19.66 21.67 -20.32 21.34 -21 21 C-18.18367703 12.76639696 -14.96787172 6.22878305 -7.375 1.5625 C-4 0 -4 0 0 0 Z " fill="#2C1D6B" transform="translate(77,191)"/>
<path d="M0 0 C0.66 0 1.32 0 2 0 C1.43697042 3.94120709 0.3208055 6.7508723 -2 10 C-2.66 10 -3.32 10 -4 10 C-4 9.34 -4 8.68 -4 8 C-5.010625 8.165 -6.02125 8.33 -7.0625 8.5 C-13.54280508 9.32289588 -18.80790276 9.26249707 -25 7 C-26.9375 5.375 -26.9375 5.375 -28 4 C-27.34 3.34 -26.68 2.68 -26 2 C-25.360625 2.639375 -24.72125 3.27875 -24.0625 3.9375 C-19.39235718 7.08269823 -15.03967334 7.58492137 -9.5234375 6.5234375 C-5.10886545 5.21488357 -2.41018334 4.11148922 0 0 Z " fill="#270F5B" transform="translate(87,290)"/>
<path d="M0 0 C4.29 0 8.58 0 13 0 C13.33 2.64 13.66 5.28 14 8 C13.34 7.67 12.68 7.34 12 7 C12 5.35 12 3.7 12 2 C8.7 2 5.4 2 2 2 C2.42687983 3.89825285 2.86699482 5.79353183 3.3125 7.6875 C3.55613281 8.74324219 3.79976562 9.79898437 4.05078125 10.88671875 C4.87728087 14.05071876 4.87728087 14.05071876 6.66796875 16.76953125 C7.10753906 17.50558594 7.54710937 18.24164063 8 19 C7.67 19.66 7.34 20.32 7 21 C1.73215199 14.20724862 -0.35832407 8.77893975 0 0 Z " fill="#2C0F5E" transform="translate(44,281)"/>
<path d="M0 0 C1.2065625 0.0309375 1.2065625 0.0309375 2.4375 0.0625 C1.4475 0.7225 0.4575 1.3825 -0.5625 2.0625 C-1.14243699 4.25704681 -1.14243699 4.25704681 -1.25 6.6875 C-1.31574219 7.50476563 -1.38148437 8.32203125 -1.44921875 9.1640625 C-1.50529297 10.10378906 -1.50529297 10.10378906 -1.5625 11.0625 C5.29901682 10.23166915 10.00369509 8.49504166 15.52734375 4.3046875 C17.4375 3.0625 17.4375 3.0625 20.4375 3.0625 C14.379979 8.80534458 9.21348836 13.1955407 0.5 13.25 C-0.85477589 13.20250368 -2.20942538 13.1453413 -3.5625 13.0625 C-3.58936553 11.08340602 -3.60883375 9.10421029 -3.625 7.125 C-3.63660156 6.02285156 -3.64820312 4.92070312 -3.66015625 3.78515625 C-3.52747618 0.086036 -3.52747618 0.086036 0 0 Z " fill="#2B0E61" transform="translate(107.5625,265.9375)"/>
<path d="M0 0 C0.33 0 0.66 0 1 0 C1 3.3 1 6.6 1 10 C-5.93 10 -12.86 10 -20 10 C-20 9.67 -20 9.34 -20 9 C-17.36 8.67 -14.72 8.34 -12 8 C-12.33 7.67 -12.66 7.34 -13 7 C-13 6.34 -13 5.68 -13 5 C-17.29 4.67 -21.58 4.34 -26 4 C-25.67 3.34 -25.34 2.68 -25 2 C-19.72 2.33 -14.44 2.66 -9 3 C-8.67 2.34 -8.34 1.68 -8 1 C-8.33 3.31 -8.66 5.62 -9 8 C-6.03 8.33 -3.06 8.66 0 9 C0 6.03 0 3.06 0 0 Z " fill="#0F203B" transform="translate(264,247)"/>
<path d="M0 0 C0 0.33 0 0.66 0 1 C-11.22 1 -22.44 1 -34 1 C-34 2.98 -34 4.96 -34 7 C-34.33 7.66 -34.66 8.32 -35 9 C-35.66 9 -36.32 9 -37 9 C-37 6.03 -37 3.06 -37 0 C-33.08388313 -0.2003489 -29.16711603 -0.38283613 -25.25 -0.5625 C-23.61224609 -0.64661133 -23.61224609 -0.64661133 -21.94140625 -0.73242188 C-14.53701578 -1.06101909 -7.36808185 -0.79895867 0 0 Z " fill="#19155C" transform="translate(98,223)"/>
<path d="M0 0 C3.3 0 6.6 0 10 0 C10 11.55 10 23.1 10 35 C9.67 35 9.34 35 9 35 C9 24.44 9 13.88 9 3 C6.03 2.67 3.06 2.34 0 2 C0 1.34 0 0.68 0 0 Z " fill="#0D1B34" transform="translate(143,235)"/>
<path d="M0 0 C4.29 0 8.58 0 13 0 C13.25 7.625 13.25 7.625 11 11 C10.34 11 9.68 11 9 11 C9 7.7 9 4.4 9 1 C6.03 1 3.06 1 0 1 C0 0.67 0 0.34 0 0 Z " fill="#0D173D" transform="translate(74,266)"/>
<path d="M0 0 C2.97 0 5.94 0 9 0 C9 0.66 9 1.32 9 2 C6.69 2 4.38 2 2 2 C2.27714844 2.83144531 2.55429687 3.66289062 2.83984375 4.51953125 C4.2265625 8.6796875 5.61328125 12.83984375 7 17 C6.34 17 5.68 17 5 17 C1.68460919 11.11785501 0.42121081 6.73937304 0 0 Z " fill="#4F1F97" transform="translate(46,283)"/>
<path d="M0 0 C-2.64738916 1.4606285 -3.89448334 2 -7 2 C-7.33 2.66 -7.66 3.32 -8 4 C-9.99054876 4.69437747 -11.99255385 5.35610218 -14 6 C-16.01470098 6.97004121 -18.01922047 7.96244882 -20 9 C-18.49235345 4.77858966 -15.78707131 3.19650136 -12 1 C-8.19763666 -0.52094534 -4.03345454 -0.06722424 0 0 Z " fill="#59278F" transform="translate(362,234)"/>
<path d="M0 0 C1.32 0.33 2.64 0.66 4 1 C4 1.66 4 2.32 4 3 C7.81615468 5.47045803 11.84744248 5.43831912 16.25 5.625 C16.99507813 5.66367187 17.74015625 5.70234375 18.5078125 5.7421875 C20.3381524 5.83605108 22.16904143 5.91909718 24 6 C19.52624325 8.9825045 15.24543192 8.48095651 10 8 C5.22199872 6.34941774 2.88740462 4.10899888 0 0 Z " fill="#5B2C8D" transform="translate(383,265)"/>
<path d="M0 0 C1.9375 0.8125 1.9375 0.8125 3.9375 3.8125 C3.9375 4.8025 3.9375 5.7925 3.9375 6.8125 C1.9575 7.1425 -0.0225 7.4725 -2.0625 7.8125 C-2.3925 7.1525 -2.7225 6.4925 -3.0625 5.8125 C-2.7325 4.8225 -2.4025 3.8325 -2.0625 2.8125 C-3.0525 2.4825 -4.0425 2.1525 -5.0625 1.8125 C-2.0625 -0.1875 -2.0625 -0.1875 0 0 Z " fill="#021A40" transform="translate(149.0625,221.1875)"/>
<path d="M0 0 C5.59455163 1.35625494 8.76952557 5.50397889 12 10 C13.4375 13.5 13.4375 13.5 14 16 C12.5 14.625 12.5 14.625 11 13 C11 12.34 11 11.68 11 11 C10.01 10.67 9.02 10.34 8 10 C6.8125 7.4375 6.8125 7.4375 6 5 C5.01 5.33 4.02 5.66 3 6 C3 5.34 3 4.68 3 4 C2.34 4 1.68 4 1 4 C0.67 2.68 0.34 1.36 0 0 Z " fill="#2C216D" transform="translate(118,236)"/>
<path d="M0 0 C1.65 0 3.3 0 5 0 C5.33 0.99 5.66 1.98 6 3 C4.92456217 3.98783194 3.83926783 4.96493943 2.75 5.9375 C1.84507813 6.75541016 1.84507813 6.75541016 0.921875 7.58984375 C-1.08467305 9.06212799 -2.57002449 9.57529189 -5 10 C-4 7 -4 7 -1.9375 5 C0.34789761 3.10497717 0.34789761 3.10497717 0 0 Z " fill="#2E1B71" transform="translate(78,298)"/>
<path d="M0 0 C0.33 0.99 0.66 1.98 1 3 C3.01508358 3.73323796 3.01508358 3.73323796 5 4 C4.67 4.66 4.34 5.32 4 6 C3.34 6 2.68 6 2 6 C2 6.66 2 7.32 2 8 C1.01 8 0.02 8 -1 8 C-1 7.34 -1 6.68 -1 6 C-1.99 5.67 -2.98 5.34 -4 5 C-3.6875 3.0625 -3.6875 3.0625 -3 1 C-2.01 0.67 -1.02 0.34 0 0 Z " fill="#6B20AC" transform="translate(348,261)"/>
<path d="M0 0 C1.12937065 3.58222252 1.0674821 6.88817884 1 10.625 C0.76378051 14.97333989 0.76378051 14.97333989 2 19 C1.34 19.66 0.68 20.32 0 21 C-1.66227326 17.35883 -2.2724556 14.49709631 -2.25 10.5 C-2.25515625 9.5821875 -2.2603125 8.664375 -2.265625 7.71875 C-1.98262598 4.8221718 -1.20350245 2.63624347 0 0 Z " fill="#5A2C8C" transform="translate(341,243)"/>
<path d="M0 0 C3.96 0 7.92 0 12 0 C12 0.66 12 1.32 12 2 C9.03 2 6.06 2 3 2 C2.67 2.66 2.34 3.32 2 4 C3.98 4 5.96 4 8 4 C7.67 5.32 7.34 6.64 7 8 C7 7.01 7 6.02 7 5 C5.02 5 3.04 5 1 5 C0.67 3.35 0.34 1.7 0 0 Z " fill="#0F1645" transform="translate(90,236)"/>
<path d="M0 0 C0.66 0 1.32 0 2 0 C2 2.31 2 4.62 2 7 C6.455 6.505 6.455 6.505 11 6 C10.67 6.66 10.34 7.32 10 8 C6.52674819 9.1577506 3.63932552 9.06866652 0 9 C0 6.03 0 3.06 0 0 Z " fill="#4E2095" transform="translate(106,268)"/>
<path d="M0 0 C0.99 0.33 1.98 0.66 3 1 C2.34 1.7425 1.68 2.485 1 3.25 C-2.18347579 7.94084595 -1.47790015 13.57074087 -1 19 C-0.67 19.99 -0.34 20.98 0 22 C-0.66 22 -1.32 22 -2 22 C-3.48619895 19.02760209 -3.13177009 16.30380422 -3.125 13 C-3.12757812 11.741875 -3.13015625 10.48375 -3.1328125 9.1875 C-3 6 -3 6 -2 4 C-2.66 3.67 -3.32 3.34 -4 3 C-2.68 2.67 -1.36 2.34 0 2 C0 1.34 0 0.68 0 0 Z " fill="#250F5A" transform="translate(28,237)"/>
<path d="M0 0 C0.33 1.32 0.66 2.64 1 4 C-2.3 3.34 -5.6 2.68 -9 2 C-9 1.01 -9 0.02 -9 -1 C-5.79937313 -2.60031344 -3.27728194 -1.03173691 0 0 Z " fill="#6E1EAD" transform="translate(410,239)"/>
<path d="M0 0 C1.2065625 0.0309375 1.2065625 0.0309375 2.4375 0.0625 C1.4475 0.7225 0.4575 1.3825 -0.5625 2.0625 C-1.14439266 4.48771494 -1.14439266 4.48771494 -1.25 7.1875 C-1.31574219 8.09757812 -1.38148437 9.00765625 -1.44921875 9.9453125 C-1.48660156 10.64398438 -1.52398437 11.34265625 -1.5625 12.0625 C0.4175 12.0625 2.3975 12.0625 4.4375 12.0625 C4.4375 12.3925 4.4375 12.7225 4.4375 13.0625 C1.7975 13.0625 -0.8425 13.0625 -3.5625 13.0625 C-3.58936553 11.08340602 -3.60883375 9.10421029 -3.625 7.125 C-3.63660156 6.02285156 -3.64820312 4.92070312 -3.66015625 3.78515625 C-3.52747618 0.086036 -3.52747618 0.086036 0 0 Z " fill="#240C50" transform="translate(107.5625,265.9375)"/>
<path d="M0 0 C3.3 0 6.6 0 10 0 C9.67 0.99 9.34 1.98 9 3 C6.36 3 3.72 3 1 3 C1 4.65 1 6.3 1 8 C0.67 8 0.34 8 0 8 C0 5.36 0 2.72 0 0 Z " fill="#0B1B31" transform="translate(271,235)"/>
<path d="M0 0 C0 0.66 0 1.32 0 2 C-0.62648438 2.26554688 -1.25296875 2.53109375 -1.8984375 2.8046875 C-2.71570312 3.15789062 -3.53296875 3.51109375 -4.375 3.875 C-5.18710937 4.22304687 -5.99921875 4.57109375 -6.8359375 4.9296875 C-9.13802299 5.92446067 -9.13802299 5.92446067 -11 8 C-11.99 7.67 -12.98 7.34 -14 7 C-5.89473684 0 -5.89473684 0 0 0 Z " fill="#2B0D5E" transform="translate(34,222)"/>
<path d="M0 0 C0.99 0.33 1.98 0.66 3 1 C4.16461426 4.49384279 4.13568319 7.33655389 4 11 C3 12 3 12 1.15234375 12.09765625 C-0.8984375 12.06510417 -2.94921875 12.03255208 -5 12 C-5 11.67 -5 11.34 -5 11 C-2.69 11 -0.38 11 2 11 C1.34 7.37 0.68 3.74 0 0 Z " fill="#300D68" transform="translate(98,206)"/>
<path d="M0 0 C5.60784314 1.78431373 5.60784314 1.78431373 7.875 3.03125 C10.38874321 4.17722117 12.502833 4.40811839 15.25 4.625 C16.14203125 4.69976562 17.0340625 4.77453125 17.953125 4.8515625 C18.96632812 4.92503906 18.96632812 4.92503906 20 5 C20 5.33 20 5.66 20 6 C12.48580833 6.44418867 7.13896792 6.63833132 1 2 C0.67 1.34 0.34 0.68 0 0 Z " fill="#0B1A31" transform="translate(233,267)"/>
<path d="M0 0 C0.66 0 1.32 0 2 0 C2.99 1.98 3.98 3.96 5 6 C3.68 7.32 2.36 8.64 1 10 C-0.1577506 6.52674819 -0.06866652 3.63932552 0 0 Z " fill="#2E0876" transform="translate(122,241)"/>
<path d="M0 0 C-0.33 0.99 -0.66 1.98 -1 3 C-1.928125 3.4021875 -1.928125 3.4021875 -2.875 3.8125 C-5.92295549 5.51576924 -6.64076848 7.8737675 -8 11 C-8.66 11 -9.32 11 -10 11 C-9.49268371 6.60325886 -6.88085945 4.16191891 -4 1 C-2 0 -2 0 0 0 Z " fill="#5E2692" transform="translate(391,236)"/>
<path d="M0 0 C2 2 2 2 2.125 5.625 C2.08375 6.73875 2.0425 7.8525 2 9 C-0.97 9 -3.94 9 -7 9 C-7 8.34 -7 7.68 -7 7 C-4.69 7 -2.38 7 0 7 C0 4.69 0 2.38 0 0 Z " fill="#501D97" transform="translate(98,208)"/>
<path d="M0 0 C0.66 0.33 1.32 0.66 2 1 C4.37402501 1.07116382 6.75000677 1.08409085 9.125 1.0625 C10.40632813 1.05347656 11.68765625 1.04445313 13.0078125 1.03515625 C14.48894531 1.01775391 14.48894531 1.01775391 16 1 C16 1.33 16 1.66 16 2 C15.30132812 2.04898437 14.60265625 2.09796875 13.8828125 2.1484375 C12.97273438 2.22320312 12.06265625 2.29796875 11.125 2.375 C10.22007813 2.44460938 9.31515625 2.51421875 8.3828125 2.5859375 C5.82058097 2.79568132 5.82058097 2.79568132 4 5 C1.69 4.01 -0.62 3.02 -3 2 C-2.01 1.34 -1.02 0.68 0 0 Z " fill="#11154F" transform="translate(32,273)"/>
<path d="M0 0 C0.66 0.33 1.32 0.66 2 1 C1.40072174 4.35595828 0.15377564 6.37801226 -2 9 C-3.5625 6.625 -3.5625 6.625 -5 4 C-4 2 -4 2 -1 1 C-0.67 0.67 -0.34 0.34 0 0 Z " fill="#2E1472" transform="translate(22,250)"/>
<path d="M0 0 C3.63 0 7.26 0 11 0 C9.80612245 5.96938776 9.80612245 5.96938776 7 9 C6.34 9 5.68 9 5 9 C5.33 7.35 5.66 5.7 6 4 C6.99 4 7.98 4 9 4 C9 3.34 9 2.68 9 2 C6.03 1.67 3.06 1.34 0 1 C0 0.67 0 0.34 0 0 Z " fill="#5E3197" transform="translate(364,260)"/>
<path d="M0 0 C1.32 0.66 2.64 1.32 4 2 C2.73046875 3.49739583 1.4609375 4.99479167 0.19140625 6.4921875 C-1.0878152 8.00594079 -1.0878152 8.00594079 -2 10 C-2.66 9.67 -3.32 9.34 -4 9 C-3.52418802 7.68628013 -3.04424851 6.37405454 -2.5625 5.0625 C-2.29566406 4.33160156 -2.02882812 3.60070312 -1.75390625 2.84765625 C-1 1 -1 1 0 0 Z " fill="#221E57" transform="translate(60,203)"/>
<path d="M0 0 C4.95 0 9.9 0 15 0 C12.08252948 1.94498034 10.84893153 2.39388356 7.5 2.8125 C6.33984375 2.97685547 6.33984375 2.97685547 5.15625 3.14453125 C3 3 3 3 0 0 Z " fill="#6429A0" transform="translate(391,250)"/>
<path d="M0 0 C0 2.97 0 5.94 0 9 C-1.32 8.67 -2.64 8.34 -4 8 C-3.34 7.67 -2.68 7.34 -2 7 C-2 5.68 -2 4.36 -2 3 C-4.31 2.67 -6.62 2.34 -9 2 C-5.5647952 -0.29013653 -4.014669 -0.17842973 0 0 Z " fill="#0F1F37" transform="translate(440,220)"/>
<path d="M0 0 C0.66 0 1.32 0 2 0 C1.4359146 3.94859783 0.2568294 6.70879046 -2 10 C-2.33 10 -2.66 10 -3 10 C-3.2295711 6.63295715 -3.33943529 4.58629732 -1.625 1.625 C-1.08875 1.08875 -0.5525 0.5525 0 0 Z " fill="#282061" transform="translate(87,290)"/>
<path d="M0 0 C0.99 0.66 1.98 1.32 3 2 C1.54182203 2.16802051 0.0834516 2.33437143 -1.375 2.5 C-2.59316406 2.63921875 -2.59316406 2.63921875 -3.8359375 2.78125 C-6 3 -6 3 -8 3 C-8 2.34 -8 1.68 -8 1 C-4.93240944 -0.8624657 -3.38040761 -1.30854488 0 0 Z " fill="#05112F" transform="translate(79,308)"/>
<path d="M0 0 C3.01217112 0.64449607 5.51655836 1.65022182 8.25 3.0625 C8.95640625 3.42472656 9.6628125 3.78695313 10.390625 4.16015625 C10.92171875 4.43730469 11.4528125 4.71445312 12 5 C12 5.66 12 6.32 12 7 C7.48292068 6.4685789 4.61312423 4.70984317 1 2 C0.67 1.34 0.34 0.68 0 0 Z " fill="#270E5A" transform="translate(52,302)"/>
<path d="M0 0 C-0.33 1.32 -0.66 2.64 -1 4 C-3.97 3.505 -3.97 3.505 -7 3 C-6.67 2.01 -6.34 1.02 -6 0 C-3.50907189 -1.24546405 -2.58919267 -0.7767578 0 0 Z " fill="#6523A0" transform="translate(369,267)"/>
<path d="M0 0 C0.66 0 1.32 0 2 0 C3.125 2.8125 3.125 2.8125 4 6 C3.01 7.485 3.01 7.485 2 9 C1.34 9 0.68 9 0 9 C0 6.03 0 3.06 0 0 Z " fill="#16175A" transform="translate(83,268)"/>
<path d="M0 0 C0.33 0.66 0.66 1.32 1 2 C1.66 2.144375 2.32 2.28875 3 2.4375 C3.66 2.623125 4.32 2.80875 5 3 C5.33 3.99 5.66 4.98 6 6 C4.02 6 2.04 6 0 6 C-1.125 2.25 -1.125 2.25 0 0 Z " fill="#5F17AD" transform="translate(390,249)"/>
<path d="M0 0 C2.31 0.33 4.62 0.66 7 1 C9.125 5.625 9.125 5.625 8 9 C7.608125 8.2575 7.21625 7.515 6.8125 6.75 C4.86961158 3.80216929 2.83531533 2.06901389 0 0 Z " fill="#211B57" transform="translate(111,234)"/>
<path d="M0 0 C0.33 0 0.66 0 1 0 C1.20086443 3.71599191 1.1519437 4.77208445 -1 8 C-1.39013716 9.9896995 -1.73202649 11.99019869 -2 14 C-1.34 14.33 -0.68 14.66 0 15 C-0.99 15 -1.98 15 -3 15 C-3.3152595 9.01006953 -2.68219822 5.36439644 0 0 Z " fill="#25145B" transform="translate(16,234)"/>
<path d="M0 0 C0.66666667 1.33333333 1.33333333 2.66666667 2 4 C2.53625 5.03125 3.0725 6.0625 3.625 7.125 C5 10 5 10 5 12 C4.34 12 3.68 12 3 12 C2.29773859 10.75823305 1.61370891 9.50614401 0.9375 8.25 C0.36322266 7.20585937 0.36322266 7.20585937 -0.22265625 6.140625 C-1.1312406 3.63859372 -0.88336837 2.4667645 0 0 Z " fill="#481A8F" transform="translate(48,288)"/>
<path d="M0 0 C0.928125 0.2784375 0.928125 0.2784375 1.875 0.5625 C4.04160178 1.23686176 4.04160178 1.23686176 6 0 C6 0.66 6 1.32 6 2 C6.66 2.33 7.32 2.66 8 3 C7 4 7 4 3.9375 4.0625 C2.968125 4.041875 1.99875 4.02125 1 4 C0.67 2.68 0.34 1.36 0 0 Z " fill="#38107F" transform="translate(113,270)"/>
<path d="M0 0 C2.64752004 2.57784846 4.94432065 4.91648098 7 8 C6.67 8.99 6.34 9.98 6 11 C4.99126984 9.73608512 3.99328178 8.46359117 3 7.1875 C2.443125 6.47980469 1.88625 5.77210938 1.3125 5.04296875 C0 3 0 3 0 0 Z " fill="#071B32" transform="translate(15,261)"/>
<path d="M0 0 C2.64 0.66 5.28 1.32 8 2 C8 2.66 8 3.32 8 4 C6.35 4.33 4.7 4.66 3 5 C3 4.34 3 3.68 3 3 C2.01 2.67 1.02 2.34 0 2 C0 1.34 0 0.68 0 0 Z " fill="#0D174C" transform="translate(109,222)"/>
<path d="M0 0 C1.65 0 3.3 0 5 0 C4.67 0.66 4.34 1.32 4 2 C3.34 2 2.68 2 2 2 C1.34 3.65 0.68 5.3 0 7 C-0.33 7 -0.66 7 -1 7 C-0.67 4.69 -0.34 2.38 0 0 Z " fill="#612A94" transform="translate(390,243)"/>
<path d="M0 0 C2.88437779 1.29299694 4.87219421 2.65941363 7 5 C6.67 5.66 6.34 6.32 6 7 C4 6 2 5 0 4 C0 2.68 0 1.36 0 0 Z " fill="#5C2897" transform="translate(367,237)"/>
<path d="M0 0 C4.20390632 1.50139512 5.89110738 4.17275043 8 8 C7.67 8.99 7.34 9.98 7 11 C6.01941648 9.54261898 5.04057868 8.08406325 4.0625 6.625 C3.51722656 5.81289062 2.97195312 5.00078125 2.41015625 4.1640625 C1 2 1 2 0 0 Z " fill="#451C8A" transform="translate(90,197)"/>
<path d="M0 0 C1.16945792 0.80847729 2.33550461 1.62189112 3.5 2.4375 C4.47453125 3.11619141 4.47453125 3.11619141 5.46875 3.80859375 C5.9740625 4.20175781 6.479375 4.59492188 7 5 C7 5.33 7 5.66 7 6 C5.02 6 3.04 6 1 6 C0.67 4.02 0.34 2.04 0 0 Z " fill="#221C57" transform="translate(28,260)"/>
<path d="M0 0 C1.98 0.99 1.98 0.99 4 2 C4 5.3 4 8.6 4 12 C3.67 12 3.34 12 3 12 C2 8 1 4 0 0 Z " fill="#0F1541" transform="translate(129,244)"/>
<path d="M0 0 C0.66 0.99 1.32 1.98 2 3 C1.01 4.485 1.01 4.485 0 6 C-0.66 6 -1.32 6 -2 6 C-2.33 7.65 -2.66 9.3 -3 11 C-4 8 -4 8 -3.22265625 5.95703125 C-2.83980469 5.24933594 -2.45695312 4.54164063 -2.0625 3.8125 C-1.68222656 3.09707031 -1.30195312 2.38164062 -0.91015625 1.64453125 C-0.60980469 1.10183594 -0.30945312 0.55914062 0 0 Z " fill="#091437" transform="translate(49,200)"/>
<path d="M0 0 C0.66 0 1.32 0 2 0 C0.81323934 4.10801767 0.10551666 5.89448334 -3 9 C-2.01 6.03 -1.02 3.06 0 0 Z " fill="#090F3A" transform="translate(99,291)"/>
<path d="M0 0 C0.33 0 0.66 0 1 0 C1.09765625 6.15234375 1.09765625 6.15234375 1 8 C0 9 0 9 -2.5625 9.0625 C-3.366875 9.041875 -4.17125 9.02125 -5 9 C-4 7 -4 7 -1 6 C-0.67 4.02 -0.34 2.04 0 0 Z " fill="#051724" transform="translate(224,235)"/>
<path d="M0 0 C2.31 0.33 4.62 0.66 7 1 C6.67 1.99 6.34 2.98 6 4 C3.69 3.67 1.38 3.34 -1 3 C-0.67 2.01 -0.34 1.02 0 0 Z " fill="#1D1362" transform="translate(93,237)"/>
<path d="M0 0 C0.86625 0.2784375 0.86625 0.2784375 1.75 0.5625 C4.20692525 1.04023546 5.64397534 0.75729364 8 0 C8 0.99 8 1.98 8 3 C5.69 3 3.38 3 1 3 C0.67 2.01 0.34 1.02 0 0 Z " fill="#091748" transform="translate(24,271)"/>
<path d="M0 0 C2.31 0.33 4.62 0.66 7 1 C7.33 2.32 7.66 3.64 8 5 C2.25 3.375 2.25 3.375 0 0 Z " fill="#2B1E69" transform="translate(21,259)"/>
<path d="M0 0 C1.66611905 -0.042721 3.33382885 -0.04063832 5 0 C6 1 6 1 6.0625 3.5625 C6.041875 4.366875 6.02125 5.17125 6 6 C3.97945196 4.35830472 1.97956942 2.69088222 0 1 C0 0.67 0 0.34 0 0 Z " fill="#612597" transform="translate(361,243)"/>
<path d="" fill="#000000" transform="translate(0,0)"/>
<path d="" fill="#000000" transform="translate(0,0)"/>
<path d="" fill="#000000" transform="translate(0,0)"/>
</svg>
