<?xml version="1.0" encoding="UTF-8"?>
<svg version="1.1" xmlns="http://www.w3.org/2000/svg" width="500" height="500">
<path d="M0 0 C4.92186338 6.74570108 7 13.66741337 7 22 C2.71 21.67 -1.58 21.34 -6 21 C-6.5878125 18.9271875 -6.5878125 18.9271875 -7.1875 16.8125 C-8.62271859 12.47267235 -10.41461938 9.94185077 -14 7 C-16.80107012 5.59946494 -19.18891681 5.7924496 -22.3125 5.75 C-23.44300781 5.72421875 -24.57351562 5.6984375 -25.73828125 5.671875 C-30.61011377 6.16197552 -32.89613767 7.75228906 -36.10766602 11.38232422 C-39.11231147 16.05306436 -38.60328716 21.36807025 -38.609375 26.7421875 C-38.62591125 27.86569611 -38.64244751 28.98920471 -38.65948486 30.14675903 C-38.70793415 33.72289515 -38.72932998 37.29860606 -38.75 40.875 C-38.77816209 43.30470886 -38.80808985 45.73439793 -38.83984375 48.1640625 C-38.91369298 54.10934001 -38.96328693 60.05438188 -39 66 C-43.29 66 -47.58 66 -52 66 C-52.09924142 58.61682 -52.17164627 51.23403256 -52.21972656 43.8503418 C-52.23978062 41.34115836 -52.26703085 38.83202131 -52.30175781 36.32299805 C-52.35054754 32.70610067 -52.37303182 29.0898239 -52.390625 25.47265625 C-52.41127014 24.35979752 -52.43191528 23.24693878 -52.45318604 22.10035706 C-52.45601459 12.17245323 -49.75003458 4.9495909 -42.88671875 -2.2734375 C-31.07277916 -13.0845375 -10.95779392 -11.00564455 0 0 Z " fill="#041449" transform="translate(96,198)"/>
<path d="M0 0 C0 4.62 0 9.24 0 14 C-1.98 14 -3.96 14 -6 14 C-10.4277011 16.34407705 -12.79494374 18.53236426 -15 23 C-15.47082436 25.94924807 -15.47082436 25.94924807 -15.375 29 C-15.38273437 30.010625 -15.39046875 31.02125 -15.3984375 32.0625 C-14.771494 36.68467172 -13.07933328 39.04369036 -9.61816406 42.11035156 C-4.94684083 45.11159438 0.36914345 44.60328837 5.7421875 44.609375 C7.42745041 44.63417938 7.42745041 44.63417938 9.14675903 44.65948486 C12.72289515 44.70793415 16.29860606 44.72932998 19.875 44.75 C22.30470886 44.77816209 24.73439793 44.80808985 27.1640625 44.83984375 C33.10929789 44.91369246 39.05441385 44.96535307 45 45 C45.22142255 46.95689659 45.4267568 48.91561952 45.625 50.875 C45.74101563 51.96554687 45.85703125 53.05609375 45.9765625 54.1796875 C45.98816406 55.57574219 45.98816406 55.57574219 46 57 C44 59 44 59 41.83920288 59.22273254 C40.49639755 59.20299629 40.49639755 59.20299629 39.12646484 59.18286133 C38.11135834 59.17237259 37.09625183 59.16188385 36.05038452 59.15107727 C34.39735825 59.11689949 34.39735825 59.11689949 32.7109375 59.08203125 C31.01235092 59.05516487 31.01235092 59.05516487 29.27944946 59.02775574 C26.87679765 58.98648673 24.47423248 58.9398883 22.07177734 58.88842773 C18.4111917 58.81324334 14.75088439 58.76394851 11.08984375 58.71679688 C8.75517843 58.67345693 6.42054097 58.62858367 4.0859375 58.58203125 C2.99606537 58.56936722 1.90619324 58.55670319 0.78329468 58.5436554 C-8.61331476 58.30511376 -15.24036941 56.40531487 -22.23828125 49.90234375 C-29.19460744 42.39074541 -29.53568171 34.04582913 -29.3359375 24.28125 C-28.9287426 16.58156467 -25.69056615 11.30506598 -20.1875 6.0625 C-14.75716131 1.70798313 -6.92700317 -2.30900106 0 0 Z " fill="#03174A" transform="translate(42,221)"/>
<path d="M0 0 C7.36486944 -0.09932908 14.72934363 -0.17168728 22.09472656 -0.21972656 C24.59707436 -0.23976603 27.09937578 -0.26700522 29.6015625 -0.30175781 C33.21105437 -0.3506124 36.81992379 -0.37304645 40.4296875 -0.390625 C41.53738495 -0.41127014 42.6450824 -0.43191528 43.78634644 -0.45318604 C52.6539716 -0.45571269 60.12877208 1.15894596 66.875 7.1875 C73.0450572 14.17439692 74.36004623 20.40477034 74.5 29.5625 C74.51861084 30.3659082 74.53722168 31.16931641 74.55639648 31.99707031 C74.47870388 39.35599296 72.08265781 45.49285492 66.8125 50.75 C60.92470236 56.26037471 53.98777946 58.71972704 46 59 C44 57 44 57 43.75 53.6875 C44.15927874 47.65063862 44.15927874 47.65063862 46 45 C48.23311478 44.06917134 50.48905582 43.40381417 52.80859375 42.71875 C55.9157008 41.6996632 57.2233132 40.7716314 59 38 C61.1906645 31.54270097 61.47870665 26.35842141 59 20 C56.79185056 17.40542441 55.04391181 15.5219559 52 14 C50.33600717 13.88112044 48.66750725 13.82288056 46.99951172 13.79467773 C45.95858368 13.77473251 44.91765564 13.75478729 43.84518433 13.73423767 C42.71807037 13.71752518 41.59095642 13.70081268 40.4296875 13.68359375 C39.27832306 13.66281265 38.12695862 13.64203156 36.94070435 13.62062073 C33.2521986 13.55508335 29.56361997 13.49622072 25.875 13.4375 C23.37889862 13.39431877 20.8828047 13.35070462 18.38671875 13.30664062 C12.25788774 13.19939765 6.12898323 13.09814199 0 13 C0 8.71 0 4.42 0 0 Z " fill="#021940" transform="translate(59,221)"/>
<path d="M0 0 C4.29 0 8.58 0 13 0 C13.09922689 7.5255961 13.17163956 15.05080733 13.21972656 22.5769043 C13.23978303 25.13458901 13.26703505 27.69222821 13.30175781 30.24975586 C13.35053672 33.93614975 13.37302945 37.62193484 13.390625 41.30859375 C13.41127014 42.44332626 13.43191528 43.57805878 13.45318604 44.74717712 C13.45546277 52.88913614 12.00052648 58.92785691 7.140625 65.5234375 C6.51671875 66.13445312 5.8928125 66.74546875 5.25 67.375 C4.63640625 68.00148438 4.0228125 68.62796875 3.390625 69.2734375 C-2.517471 73.54039572 -8.71491494 74.56137435 -15.875 74.5 C-16.66366455 74.49355469 -17.4523291 74.48710937 -18.26489258 74.48046875 C-26.9826122 74.20767546 -32.85333454 71.5352949 -38.9375 65.25 C-43.8297071 59.1232029 -45.49370751 52.73475097 -45 45 C-40.71 45 -36.42 45 -32 45 C-31.773125 46.19625 -31.54625 47.3925 -31.3125 48.625 C-30.1850504 53.19157643 -28.26562046 55.65273903 -25 59 C-22.0586446 60.4706777 -19.39772595 60.17048999 -16.125 60.1875 C-14.89007813 60.20167969 -13.65515625 60.21585937 -12.3828125 60.23046875 C-9.21041376 60.01433535 -7.57662493 59.77923984 -5 58 C-1.16442806 52.9589626 0.12992261 49.37059291 0.11352539 43.13964844 C0.11344986 42.17895447 0.11337433 41.2182605 0.11329651 40.22845459 C0.10813522 39.19915833 0.10297394 38.16986206 0.09765625 37.109375 C0.0962413 36.04962463 0.09482635 34.98987427 0.09336853 33.89801025 C0.08777382 30.51531138 0.07522225 27.13267885 0.0625 23.75 C0.05748432 21.45573012 0.05292153 19.16145921 0.04882812 16.8671875 C0.03780611 11.24476613 0.02054507 5.62239431 0 0 Z " fill="#031943" transform="translate(89,236)"/>
<path d="M0 0 C4.05862266 2.77790173 6.47825129 6.51140057 7.7578125 11.203125 C7.7578125 14.173125 7.7578125 17.143125 7.7578125 20.203125 C-1.1521875 20.203125 -10.0621875 20.203125 -19.2421875 20.203125 C-16.91967324 25.08808025 -16.91967324 25.08808025 -14.2421875 26.203125 C-10.78406581 26.53651096 -10.78406581 26.53651096 -7.2421875 26.203125 C-6.79101562 25.70683594 -6.33984375 25.21054687 -5.875 24.69921875 C-3.50077614 22.52379354 -1.70679427 22.90437417 1.4453125 23.015625 C2.93611328 23.05623047 2.93611328 23.05623047 4.45703125 23.09765625 C5.21628906 23.13246094 5.97554688 23.16726563 6.7578125 23.203125 C5.50566149 29.04649638 2.53882146 31.93415006 -2.2421875 35.203125 C-7.84604748 37.07107833 -13.94959871 36.93848367 -19.5546875 35.140625 C-26.02206486 30.47809713 -28.81340639 25.99647651 -30.2421875 18.203125 C-30.5721875 17.213125 -30.9021875 16.223125 -31.2421875 15.203125 C-30.5821875 15.203125 -29.9221875 15.203125 -29.2421875 15.203125 C-29.2009375 14.0275 -29.1596875 12.851875 -29.1171875 11.640625 C-28.45518465 6.52597282 -26.18940106 3.43966887 -22.2421875 0.203125 C-14.87700112 -4.07931327 -7.37832285 -4.10871312 0 0 Z M-18.2421875 10.203125 C-18.5721875 11.193125 -18.9021875 12.183125 -19.2421875 13.203125 C-13.9621875 13.203125 -8.6821875 13.203125 -3.2421875 13.203125 C-3.86345909 9.30470813 -3.86345909 9.30470813 -5.9296875 7.453125 C-11.11385296 4.6508734 -14.72830302 5.64808956 -18.2421875 10.203125 Z " fill="#3F36BD" transform="translate(409.2421875,236.796875)"/>
<path d="M0 0 C3.26099491 2.98571612 5.59633884 5.78901651 7 10 C7 13.3 7 16.6 7 20 C-1.58 20 -10.16 20 -19 20 C-17.66436384 24.94463635 -17.66436384 24.94463635 -15 26 C-11.54187831 26.33338596 -11.54187831 26.33338596 -8 26 C-7.54882812 25.50371094 -7.09765625 25.00742187 -6.6328125 24.49609375 C-4.25858864 22.32066854 -2.46460677 22.70124917 0.6875 22.8125 C2.17830078 22.85310547 2.17830078 22.85310547 3.69921875 22.89453125 C4.45847656 22.92933594 5.21773438 22.96414063 6 23 C5.24962244 27.87745412 3.7686086 29.74529257 0 33 C-5.49380677 36.86428781 -10.47656268 36.77865963 -17 36 C-21.89784082 34.37900642 -25.18499136 31.27464275 -28 27 C-30.72379747 21.13941049 -31.18911246 14.86943622 -29.27734375 8.6484375 C-26.78056654 3.25054669 -23.63398431 0.14521057 -18.125 -2.25 C-11.63061559 -3.80865226 -5.79456868 -3.36648019 0 0 Z M-19 10 C-19 10.99 -19 11.98 -19 13 C-14.38 13 -9.76 13 -5 13 C-4.67 11.68 -4.34 10.36 -4 9 C-6.34374538 6.83654273 -7.74584457 6.03785294 -10.9375 5.5625 C-14.72333678 6.10333383 -16.35565688 7.27788208 -19 10 Z " fill="#041B3A" transform="translate(258,237)"/>
<path d="M0 0 C4.15945828 2.92487803 7.05807161 5.92421483 8.6875 10.8125 C8.6875 14.1125 8.6875 17.4125 8.6875 20.8125 C0.1075 21.1425 -8.4725 21.4725 -17.3125 21.8125 C-15.8125 25.8125 -15.8125 25.8125 -13.3125 26.8125 C-11.77226004 26.88200541 -10.22915012 26.89702357 -8.6875 26.875 C-7.87023437 26.86597656 -7.05296875 26.85695313 -6.2109375 26.84765625 C-5.58445312 26.83605469 -4.95796875 26.82445312 -4.3125 26.8125 C-3.9825 25.8225 -3.6525 24.8325 -3.3125 23.8125 C0.3175 23.8125 3.9475 23.8125 7.6875 23.8125 C6.43289436 30.08552822 4.20632793 32.07330929 -0.9375 35.625 C-6.2973737 37.51088149 -11.98509842 37.95017775 -17.4375 36.0859375 C-23.14017814 33.06253487 -26.25950176 28.78803529 -28.3125 22.8125 C-29.22446098 15.71829188 -28.56828565 9.67633495 -24.3125 3.8125 C-17.82144324 -2.67855676 -8.0528778 -4.76874328 0 0 Z M-17.3125 10.8125 C-17.3125 11.8025 -17.3125 12.7925 -17.3125 13.8125 C-12.3625 13.8125 -7.4125 13.8125 -2.3125 13.8125 C-1.9825 13.1525 -1.6525 12.4925 -1.3125 11.8125 C-4.61359455 7.89587023 -4.61359455 7.89587023 -9.3125 6.25 C-12.99335383 6.94016009 -14.71748953 8.1411657 -17.3125 10.8125 Z " fill="#4037BF" transform="translate(367.3125,236.1875)"/>
<path d="M0 0 C3.63 0 7.26 0 11 0 C14.33160505 7.54549287 17.05797655 14.97928527 19 23 C19.66 23 20.32 23 21 23 C21.103125 22.18144531 21.20625 21.36289062 21.3125 20.51953125 C22.12394144 16.36550433 23.48046199 12.62611386 25 8.6875 C25.27328125 7.95982422 25.5465625 7.23214844 25.828125 6.48242188 C27.85925752 1.14074248 27.85925752 1.14074248 29 0 C30.85287502 -0.07226502 32.70833878 -0.0838122 34.5625 -0.0625 C35.57441406 -0.05347656 36.58632813 -0.04445312 37.62890625 -0.03515625 C38.41136719 -0.02355469 39.19382812 -0.01195312 40 0 C38.03962049 6.168775 35.78522902 12.13553104 33.2421875 18.0859375 C32.7194072 19.32133774 32.7194072 19.32133774 32.18606567 20.58169556 C31.08559079 23.18084043 29.98054482 25.77800809 28.875 28.375 C27.76312565 30.99375036 26.65222977 33.61290993 25.54251099 36.23257446 C24.85503993 37.85474409 24.16618968 39.47633008 23.47579956 41.09725952 C21.85102449 44.92419252 20.41165281 48.73563779 19.125 52.6875 C17 55 17 55 14.35546875 55.3203125 C11.55470891 55.31312185 8.79219844 55.21332586 6 55 C7.60969929 49.84285915 9.82120761 45.19537809 12.26953125 40.390625 C14.11256719 31.83578437 8.13628821 22.26742988 4.8125 14.5625 C3.89743094 12.4409143 2.98703726 10.31730403 2.08203125 8.19140625 C1.68218018 7.26529541 1.2823291 6.33918457 0.87036133 5.38500977 C0 3 0 3 0 0 Z " fill="#031A3A" transform="translate(442,235)"/>
<path d="M0 0 C3.98978327 3.28570387 5.32833785 6.76385346 6.125 11.75 C6.21421618 13.64946303 6.25560798 15.5515692 6.2578125 17.453125 C6.25974609 19.04640625 6.25974609 19.04640625 6.26171875 20.671875 C6.25785156 21.77015625 6.25398438 22.8684375 6.25 24 C6.25580078 25.670625 6.25580078 25.670625 6.26171875 27.375 C6.26042969 28.43203125 6.25914062 29.4890625 6.2578125 30.578125 C6.25668457 31.5465332 6.25555664 32.51494141 6.25439453 33.51269531 C6.125 35.75 6.125 35.75 5.125 36.75 C3.62761876 36.8479057 2.12557108 36.87974864 0.625 36.875 C-0.1896875 36.87757813 -1.004375 36.88015625 -1.84375 36.8828125 C-3.875 36.75 -3.875 36.75 -4.875 35.75 C-4.97202769 33.93167096 -5.00702099 32.10995811 -5.015625 30.2890625 C-5.03496094 29.17789062 -5.05429687 28.06671875 -5.07421875 26.921875 C-5.10795862 24.56527519 -5.12629335 22.20840238 -5.12890625 19.8515625 C-5.15339844 18.7378125 -5.17789062 17.6240625 -5.203125 16.4765625 C-5.21714355 14.93863037 -5.21714355 14.93863037 -5.23144531 13.36962891 C-5.64232769 10.53903216 -5.64232769 10.53903216 -8.24902344 8.87646484 C-11.34932845 7.54652738 -12.71008068 7.72353968 -15.875 8.75 C-16.865 9.245 -16.865 9.245 -17.875 9.75 C-18.87007368 12.73522105 -19.05572036 14.9146228 -19.15625 18.0390625 C-19.19363281 19.06257813 -19.23101562 20.08609375 -19.26953125 21.140625 C-19.34009824 23.30467922 -19.41040891 25.46874181 -19.48046875 27.6328125 C-19.51785156 28.65375 -19.55523437 29.6746875 -19.59375 30.7265625 C-19.63918945 32.13542725 -19.63918945 32.13542725 -19.68554688 33.57275391 C-19.875 35.75 -19.875 35.75 -20.875 36.75 C-22.39428038 36.82179964 -23.91667482 36.83392007 -25.4375 36.8125 C-26.26378906 36.80347656 -27.09007812 36.79445313 -27.94140625 36.78515625 C-28.57949219 36.77355469 -29.21757812 36.76195312 -29.875 36.75 C-31.46642848 33.56714304 -30.87508284 30.1629558 -30.75390625 26.6796875 C-30.73029526 25.88345978 -30.70668427 25.08723206 -30.68235779 24.26687622 C-30.60567789 21.71940471 -30.52167239 19.1722339 -30.4375 16.625 C-30.38428363 14.89975438 -30.3315432 13.17449402 -30.27929688 11.44921875 C-30.15005693 7.21595478 -30.01424581 2.98294618 -29.875 -1.25 C-26.575 -1.25 -23.275 -1.25 -19.875 -1.25 C-19.545 -0.59 -19.215 0.07 -18.875 0.75 C-17.905625 0.234375 -16.93625 -0.28125 -15.9375 -0.8125 C-10.47735236 -3.14939889 -5.34124166 -2.32227898 0 0 Z " fill="#031A3A" transform="translate(327.875,236.25)"/>
<path d="M0 0 C3.98978327 3.28570387 5.32833785 6.76385346 6.125 11.75 C6.21421618 13.64946303 6.25560798 15.5515692 6.2578125 17.453125 C6.25974609 19.04640625 6.25974609 19.04640625 6.26171875 20.671875 C6.25785156 21.77015625 6.25398438 22.8684375 6.25 24 C6.25580078 25.670625 6.25580078 25.670625 6.26171875 27.375 C6.26042969 28.43203125 6.25914062 29.4890625 6.2578125 30.578125 C6.25668457 31.5465332 6.25555664 32.51494141 6.25439453 33.51269531 C6.125 35.75 6.125 35.75 5.125 36.75 C3.62761876 36.8479057 2.12557108 36.87974864 0.625 36.875 C-0.1896875 36.87757813 -1.004375 36.88015625 -1.84375 36.8828125 C-3.875 36.75 -3.875 36.75 -4.875 35.75 C-4.97202769 33.93167096 -5.00702099 32.10995811 -5.015625 30.2890625 C-5.03496094 29.17789062 -5.05429688 28.06671875 -5.07421875 26.921875 C-5.10795862 24.56527519 -5.12629335 22.20840238 -5.12890625 19.8515625 C-5.15339844 18.7378125 -5.17789063 17.6240625 -5.203125 16.4765625 C-5.21714355 14.93863037 -5.21714355 14.93863037 -5.23144531 13.36962891 C-5.64201199 10.54537152 -5.64201199 10.54537152 -8.21777344 8.88818359 C-11.61068719 7.4348793 -13.3935771 7.5895257 -16.875 8.75 C-18.93298278 11.82585347 -19.15634846 14.4913197 -19.25390625 18.13671875 C-19.28806641 19.15701172 -19.32222656 20.17730469 -19.35742188 21.22851562 C-19.38384766 22.28748047 -19.41027344 23.34644531 -19.4375 24.4375 C-19.4971539 26.54569438 -19.56073583 28.65378257 -19.62890625 30.76171875 C-19.65283447 31.69459717 -19.6767627 32.62747559 -19.70141602 33.58862305 C-19.875 35.75 -19.875 35.75 -20.875 36.75 C-22.6875 36.8828125 -22.6875 36.8828125 -24.875 36.875 C-25.596875 36.87757813 -26.31875 36.88015625 -27.0625 36.8828125 C-28.875 36.75 -28.875 36.75 -29.875 35.75 C-29.96358646 33.01105915 -29.99023479 30.2974673 -29.97265625 27.55859375 C-29.9712413 26.73875504 -29.96982635 25.91891632 -29.96836853 25.07423401 C-29.96275289 22.44528618 -29.95019779 19.81642227 -29.9375 17.1875 C-29.93248701 15.40950643 -29.92792376 13.63151154 -29.92382812 11.85351562 C-29.91277839 7.48564455 -29.89550331 3.11783652 -29.875 -1.25 C-26.575 -1.25 -23.275 -1.25 -19.875 -1.25 C-19.545 -0.59 -19.215 0.07 -18.875 0.75 C-17.905625 0.234375 -16.93625 -0.28125 -15.9375 -0.8125 C-10.47735236 -3.14939889 -5.34124166 -2.32227898 0 0 Z " fill="#031A3A" transform="translate(190.875,236.25)"/>
<path d="M0 0 C0 2.97 0 5.94 0 9 C-1.65 9.33 -3.3 9.66 -5 10 C-5.33 11.65 -5.66 13.3 -6 15 C-3.69 15 -1.38 15 1 15 C1.09765625 21.15234375 1.09765625 21.15234375 1 23 C0.67 23.33 0.34 23.66 0 24 C-1.98 24 -3.96 24 -6 24 C-6 33.57 -6 43.14 -6 53 C-9.3 53 -12.6 53 -16 53 C-17.07917226 49.76248322 -17.11425601 47.42248229 -17.09765625 44.01953125 C-17.09282227 42.27446289 -17.09282227 42.27446289 -17.08789062 40.49414062 C-17.07951172 39.27919922 -17.07113281 38.06425781 -17.0625 36.8125 C-17.05798828 35.58595703 -17.05347656 34.35941406 -17.04882812 33.09570312 C-17.03703065 30.06375332 -17.02056921 27.03190094 -17 24 C-17.99 23.67 -18.98 23.34 -20 23 C-20 20.36 -20 17.72 -20 15 C-18.68 15 -17.36 15 -16 15 C-16.061875 13.948125 -16.12375 12.89625 -16.1875 11.8125 C-15.98516298 7.69831383 -15.66422182 6.09393501 -13 3 C-8.52840513 0.55327828 -5.0811614 -0.3717923 0 0 Z " fill="#021A3B" transform="translate(440,220)"/>
<path d="M0 0 C3.3 0 6.6 0 10 0 C10.33 2.64 10.66 5.28 11 8 C13.64 8.33 16.28 8.66 19 9 C19.09765625 15.15234375 19.09765625 15.15234375 19 17 C18.67 17.33 18.34 17.66 18 18 C15.36 18 12.72 18 10 18 C10.33 23.94 10.66 29.88 11 36 C14.465 36.495 14.465 36.495 18 37 C19 38 19 38 19.1328125 39.8125 C19.13023437 40.534375 19.12765625 41.25625 19.125 42 C19.12886719 43.0828125 19.12886719 43.0828125 19.1328125 44.1875 C19 46 19 46 18 47 C12.18420581 47.40108925 8.20096502 46.95741148 3 44 C-1.06979072 39.32727732 -0.34051101 34.02938177 -0.1875 28.1875 C-0.17396484 27.20845703 -0.16042969 26.22941406 -0.14648438 25.22070312 C-0.11125312 22.81323375 -0.06199265 20.40690436 0 18 C-1.65 17.67 -3.3 17.34 -5 17 C-5 14.69 -5 12.38 -5 10 C-3.35 9.67 -1.7 9.34 0 9 C0 6.03 0 3.06 0 0 Z " fill="#031B3C" transform="translate(206,226)"/>
<path d="M0 0 C6.58647439 4.45738721 10.04996402 10.42454523 12.12890625 18.0234375 C12.81640625 21.7734375 12.81640625 21.7734375 12.81640625 26.7734375 C8.52640625 26.4434375 4.23640625 26.1134375 -0.18359375 25.7734375 C-0.57546875 24.3915625 -0.96734375 23.0096875 -1.37109375 21.5859375 C-2.80631234 17.24610985 -4.59821313 14.71528827 -8.18359375 11.7734375 C-10.98466387 10.37290244 -13.37251056 10.5658871 -16.49609375 10.5234375 C-17.62660156 10.49765625 -18.75710937 10.471875 -19.921875 10.4453125 C-25.42320488 10.9987397 -28.51566666 13.83381211 -32.18359375 17.7734375 C-31.915985 11.35082762 -29.75990168 7.30217467 -25.18359375 2.7734375 C-22.31212535 0.77501661 -19.34734904 -0.74817218 -16.18359375 -2.2265625 C-15.35859375 -2.7215625 -14.53359375 -3.2165625 -13.68359375 -3.7265625 C-8.7032332 -4.72263461 -4.29118194 -2.41043136 0 0 Z " fill="#4137C0" transform="translate(90.18359375,193.2265625)"/>
<path d="M0 0 C5.89089436 0.55227135 10.79214439 3.64171907 14.77734375 7.8984375 C18.83970157 13.08315823 21.28725471 17.65323982 21 24.375 C20.0576771 30.96017412 15.86996513 35.48319672 11.0625 39.8125 C5.32516283 43.91059798 -0.0482476 45.64652106 -7 46 C-9 44 -9 44 -9.25 40.6875 C-8.84072126 34.65063862 -8.84072126 34.65063862 -7 32 C-4.76688522 31.06917134 -2.51094418 30.40381417 -0.19140625 29.71875 C2.9157008 28.6996632 4.2233132 27.7716314 6 25 C8.1906645 18.54270097 8.47870665 13.35842141 6 7 C3.56272118 4.14445983 3.56272118 4.14445983 1 2 C0.67 1.34 0.34 0.68 0 0 Z " fill="#4337C8" transform="translate(112,234)"/>
<path d="M0 0 C0 4.62 0 9.24 0 14 C-1.98 14 -3.96 14 -6 14 C-10.4277011 16.34407705 -12.79494374 18.53236426 -15 23 C-15.47082436 25.94924807 -15.47082436 25.94924807 -15.375 29 C-15.38273437 30.010625 -15.39046875 31.02125 -15.3984375 32.0625 C-14.61627815 37.82900812 -11.10075735 41.12090521 -7 45 C-13.09355601 44.68750995 -17.47101937 41.87720851 -22 38 C-24.03454221 35.48385118 -25.55820819 32.88961623 -27 30 C-27.45375 29.175 -27.9075 28.35 -28.375 27.5 C-29.55923551 22.76305796 -28.98955294 18.9307564 -26.80078125 14.66015625 C-21.25358538 5.90985516 -15.08416344 1.88911025 -5.1875 -0.75 C-3 -1 -3 -1 0 0 Z " fill="#4237C7" transform="translate(42,221)"/>
<path d="M0 0 C4.29 0 8.58 0 13 0 C13.3403125 1.794375 13.3403125 1.794375 13.6875 3.625 C14.8149496 8.19157643 16.73437954 10.65273903 20 14 C22.9413554 15.4706777 25.60227405 15.17048999 28.875 15.1875 C30.72738281 15.20876953 30.72738281 15.20876953 32.6171875 15.23046875 C38.03501976 14.86135547 40.36254819 12.8972698 44 9 C45 12 45 12 44.06640625 14.05078125 C39.7399628 20.5573027 33.99149703 27.24576895 26 29 C18.27984136 29.2384605 12.90093542 26.54790959 7.2734375 21.4296875 C2.35929096 16.22504954 -0.1439925 10.11623675 -0.1875 2.9375 C-0.125625 1.968125 -0.06375 0.99875 0 0 Z " fill="#4137C2" transform="translate(44,281)"/>
<path d="M0 0 C0 3.3 0 6.6 0 10 C-3.41796875 10.5859375 -3.41796875 10.5859375 -6.8359375 11.171875 C-9.11677819 11.7990693 -9.11677819 11.7990693 -10.12524414 13.75830078 C-11.10080369 16.25832528 -11.21615033 18.0209926 -11.16015625 20.6953125 C-11.14919922 21.57574219 -11.13824219 22.45617187 -11.12695312 23.36328125 C-11.10568359 24.27464844 -11.08441406 25.18601562 -11.0625 26.125 C-11.02813415 27.9400259 -10.99797807 29.7551379 -10.97265625 31.5703125 C-10.95468994 32.37227051 -10.93672363 33.17422852 -10.91821289 34.00048828 C-11 36 -11 36 -12 38 C-13.47906892 38.02689216 -14.95827483 38.04634621 -16.4375 38.0625 C-17.26121094 38.07410156 -18.08492188 38.08570313 -18.93359375 38.09765625 C-21 38 -21 38 -22 37 C-22.08858646 34.26105915 -22.11523479 31.5474673 -22.09765625 28.80859375 C-22.0962413 27.98875504 -22.09482635 27.16891632 -22.09336853 26.32423401 C-22.08775289 23.69528618 -22.07519779 21.06642227 -22.0625 18.4375 C-22.05748701 16.65950643 -22.05292376 14.88151154 -22.04882812 13.10351562 C-22.03777839 8.73564455 -22.02050331 4.36783652 -22 0 C-18.7 0 -15.4 0 -12 0 C-11.67 0.99 -11.34 1.98 -11 3 C-10.13375 2.2884375 -10.13375 2.2884375 -9.25 1.5625 C-5.77732026 -0.84908315 -4.04234823 -1.34744941 0 0 Z " fill="#031A3C" transform="translate(293,235)"/>
<path d="M0 0 C2.125 0.9375 2.125 0.9375 4 2 C4 2.66 4 3.32 4 4 C4.66 4 5.32 4 6 4 C6 20.5 6 37 6 54 C3.03 54 0.06 54 -3 54 C-3.02531773 46.93417118 -3.04285324 39.86835402 -3.05493164 32.80249023 C-3.05996598 30.39786339 -3.06679386 27.99323962 -3.07543945 25.58862305 C-3.08754429 22.13589725 -3.09323726 18.68321186 -3.09765625 15.23046875 C-3.10281754 14.15226364 -3.10797882 13.07405853 -3.11329651 11.96318054 C-3.11337204 10.96236954 -3.11344757 9.96155853 -3.11352539 8.93041992 C-3.115746 8.04883713 -3.11796661 7.16725433 -3.12025452 6.25895691 C-3 4 -3 4 -2 1 C-1.34 0.67 -0.68 0.34 0 0 Z " fill="#02193F" transform="translate(51,206)"/>
<path d="M0 0 C1.37478516 0.01740234 1.37478516 0.01740234 2.77734375 0.03515625 C3.69644531 0.04417969 4.61554688 0.05320313 5.5625 0.0625 C6.27277344 0.07410156 6.98304688 0.08570313 7.71484375 0.09765625 C7.73949303 5.34871067 7.75767943 10.5997317 7.76977539 15.85083008 C7.77481593 17.63859646 7.78164829 19.4263587 7.7902832 21.21411133 C7.80236105 23.77816793 7.80807469 26.34217022 7.8125 28.90625 C7.81766129 29.71041855 7.82282257 30.5145871 7.82814026 31.34312439 C7.8283359 33.2616734 7.77686358 35.18010993 7.71484375 37.09765625 C6.71484375 38.09765625 6.71484375 38.09765625 4.6484375 38.1953125 C3.82472656 38.18371094 3.00101563 38.17210937 2.15234375 38.16015625 C1.32605469 38.15113281 0.49976563 38.14210938 -0.3515625 38.1328125 C-0.98964844 38.12121094 -1.62773437 38.10960937 -2.28515625 38.09765625 C-3.49103429 34.48002213 -3.4284801 31.16755075 -3.41796875 27.40234375 C-3.41892548 26.65429474 -3.4198822 25.90624573 -3.42086792 25.13552856 C-3.42154768 23.55698563 -3.41970762 21.97843989 -3.41552734 20.39990234 C-3.41016115 17.9748717 -3.41548689 15.550025 -3.421875 13.125 C-3.42121448 11.59244751 -3.41993385 10.05989513 -3.41796875 8.52734375 C-3.41999298 7.7982077 -3.42201721 7.06907166 -3.42410278 6.31784058 C-3.39510272 0.14508986 -3.39510272 0.14508986 0 0 Z " fill="#031A3A" transform="translate(145.28515625,234.90234375)"/>
<path d="M0 0 C1.35568336 0.00333092 1.35568336 0.00333092 2.73875427 0.00672913 C3.75973709 0.00680466 4.78071991 0.00688019 5.8326416 0.00695801 C6.94304306 0.01211929 8.05344452 0.01728058 9.19749451 0.02259827 C10.89336952 0.02472069 10.89336952 0.02472069 12.62350464 0.02688599 C16.25105891 0.03250433 19.8785525 0.04505994 23.50608826 0.05775452 C25.95856133 0.06276715 28.41103536 0.06733047 30.86351013 0.07142639 C36.89022371 0.08247971 42.91690165 0.09923568 48.94358826 0.12025452 C48.94358826 0.78025452 48.94358826 1.44025452 48.94358826 2.12025452 C47.29358826 2.12025452 45.64358826 2.12025452 43.94358826 2.12025452 C43.94358826 4.10025452 43.94358826 6.08025452 43.94358826 8.12025452 C29.42358826 8.12025452 14.90358826 8.12025452 -0.05641174 8.12025452 C-0.38641174 6.14025452 -0.71641174 4.16025452 -1.05641174 2.12025452 C-1.71641174 1.79025452 -2.37641174 1.46025452 -3.05641174 1.12025452 C-2.05641174 0.12025452 -2.05641174 0.12025452 0 0 Z " fill="#02193E" transform="translate(38.05641174316406,265.87974548339844)"/>
<path d="M0 0 C3.3 0 6.6 0 10 0 C10.33 0.66 10.66 1.32 11 2 C8.36 2 5.72 2 3 2 C3 2.99 3 3.98 3 5 C4.65 5 6.3 5 8 5 C8.02468084 10.09032841 8.04285082 15.18062215 8.05493164 20.27099609 C8.05996682 22.00342414 8.06679532 23.73584792 8.07543945 25.46826172 C8.08754065 27.95541433 8.09323638 30.44251087 8.09765625 32.9296875 C8.10281754 33.70682098 8.10797882 34.48395447 8.11329651 35.28463745 C8.11387171 40.77225659 8.11387171 40.77225659 7 43 C6.34 43 5.68 43 5 43 C5 43.99 5 44.98 5 46 C4.01 46 3.02 46 2 46 C1.67 46.66 1.34 47.32 1 48 C-0.13012105 37.74099813 -0.11660861 27.55309541 -0.0625 17.25 C-0.05747197 15.57031384 -0.05291138 13.89062622 -0.04882812 12.2109375 C-0.03793264 8.14058804 -0.02074084 4.07031071 0 0 Z " fill="#03193C" transform="translate(89,236)"/>
<path d="M0 0 C0.99 0 1.98 0 3 0 C3.10181551 7.52551659 3.17163986 15.05085407 3.21972656 22.5769043 C3.23978303 25.13458901 3.26703505 27.69222821 3.30175781 30.24975586 C3.35053672 33.93614975 3.37302945 37.62193484 3.390625 41.30859375 C3.41127014 42.44332626 3.43191528 43.57805878 3.45318604 44.74717712 C3.45513943 51.73280169 2.45518753 56.8918401 -1 63 C-1.66 63 -2.32 63 -3 63 C-2.84152588 62.0937085 -2.68305176 61.18741699 -2.51977539 60.25366211 C-1.7507152 54.83974608 -1.76643832 49.40063645 -1.68359375 43.94140625 C-1.66281265 42.79711655 -1.64203156 41.65282684 -1.62062073 40.47386169 C-1.55550207 36.83679924 -1.4964161 33.19966769 -1.4375 29.5625 C-1.39427892 27.08918571 -1.3506635 24.61587827 -1.30664062 22.14257812 C-1.19985951 16.09512405 -1.0980247 10.04760201 -1 4 C-2.98 4 -4.96 4 -7 4 C-7 3.34 -7 2.68 -7 2 C-3.535 1.505 -3.535 1.505 0 1 C0 0.67 0 0.34 0 0 Z " fill="#1D2472" transform="translate(99,236)"/>
<path d="M0 0 C2.64 0.33 5.28 0.66 8 1 C8 2.65 8 4.3 8 6 C6.68 6.33 5.36 6.66 4 7 C4.99 8.485 4.99 8.485 6 10 C5.67 10.66 5.34 11.32 5 12 C4.92883618 14.37402501 4.91590915 16.75000677 4.9375 19.125 C4.94652344 20.40632813 4.95554687 21.68765625 4.96484375 23.0078125 C4.97644531 23.99523437 4.98804688 24.98265625 5 26 C2.6328125 26.12890625 2.6328125 26.12890625 0 26 C-4.12381563 21.99747307 -6.81937906 16.82972803 -7.1875 11.0625 C-7.125625 10.381875 -7.06375 9.70125 -7 9 C-6.38125 8.773125 -5.7625 8.54625 -5.125 8.3125 C-2.3634551 6.60683991 -1.98483805 5.03027091 -1 2 C-0.67 1.34 -0.34 0.68 0 0 Z " fill="#4237CA" transform="translate(20,232)"/>
<path d="M0 0 C3.76687864 0 4.91190305 0.23537317 8 2 C8.125 8.625 8.125 8.625 7 12 C0.375 12.25 0.375 12.25 -3 10 C-3 10.66 -3 11.32 -3 12 C-7.95 12 -12.9 12 -18 12 C-18 13.98 -18 15.96 -18 18 C-18.99 18 -19.98 18 -21 18 C-22 16 -22 16 -22 12 C-22.99 12 -23.98 12 -25 12 C-25 11.34 -25 10.68 -25 10 C-26.98 10.99 -26.98 10.99 -29 12 C-29 11.01 -29 10.02 -29 9 C-26.625 7.25 -26.625 7.25 -24 6 C-23.34 6.33 -22.68 6.66 -22 7 C-22.33 7.66 -22.66 8.32 -23 9 C-20.21081851 10.10540926 -20.21081851 10.10540926 -18 10 C-18 9.34 -18 8.68 -18 8 C-11.73 8 -5.46 8 1 8 C0.67 7.34 0.34 6.68 0 6 C-0.039992 4.00039988 -0.04346799 1.99952758 0 0 Z " fill="#4035CA" transform="translate(407,243)"/>
<path d="M0 0 C1 3 1 3 0.06640625 5.05078125 C-4.39386679 11.7585685 -9.91988533 17.87365403 -18 20 C-21.3125 20.125 -21.3125 20.125 -24 20 C-24 19.67 -24 19.34 -24 19 C-22.35 19 -20.7 19 -19 19 C-19 18.34 -19 17.68 -19 17 C-17.68 17 -16.36 17 -15 17 C-15.66 16.21625 -16.32 15.4325 -17 14.625 C-19 12 -19 12 -19 10 C-21.46326712 8.3553326 -21.46326712 8.3553326 -24 7 C-20.22121674 5.11060837 -15.53303273 6.05185196 -11.3828125 6.16015625 C-5.94176628 5.90255475 -3.64035108 3.90037616 0 0 Z " fill="#3E38B9" transform="translate(88,290)"/>
<path d="M0 0 C5.64794926 4.04558163 9.33466177 8.13678789 11 15 C11.29935849 19.35787448 11.24255537 23.64074093 11 28 C10.72800781 27.4328125 10.45601562 26.865625 10.17578125 26.28125 C7.03193793 20.18156728 3.56721555 15.09354085 -2 11 C-2 10.34 -2 9.68 -2 9 C-4.475 8.01 -4.475 8.01 -7 7 C-5.8125 5.5 -5.8125 5.5 -4 4 C-1.3125 3.8125 -1.3125 3.8125 1 4 C0.67 2.68 0.34 1.36 0 0 Z " fill="#04183C" transform="translate(122,226)"/>
<path d="M0 0 C1.9801217 1.9801217 2.68572203 3.30481966 3.8125 5.8125 C5.25312361 8.8296551 6.24976169 10.23840889 8.75 12.625 C11 15 11 15 11.3125 18.3125 C11.1578125 19.6428125 11.1578125 19.6428125 11 21 C11.66 21.33 12.32 21.66 13 22 C13 21.34 13 20.68 13 20 C13.99 20 14.98 20 16 20 C16 21.65 16 23.3 16 25 C14.33388095 25.042721 12.66617115 25.04063832 11 25 C10.67 24.67 10.34 24.34 10 24 C9.34 24.66 8.68 25.32 8 26 C0.95228446 17.26792477 -0.32566545 11.18118033 0 0 Z " fill="#03193A" transform="translate(13,246)"/>
<path d="M0 0 C0.99 0 1.98 0 3 0 C3 2.97 3 5.94 3 9 C-4.27735666 9.07623738 -11.55460981 9.12867867 -18.83227539 9.16479492 C-21.3065984 9.1798556 -23.78089482 9.20030825 -26.25512695 9.22631836 C-29.8172869 9.2628203 -33.379093 9.27975404 -36.94140625 9.29296875 C-38.04271378 9.30845261 -39.1440213 9.32393646 -40.27870178 9.33988953 C-46.31952302 9.34120499 -50.65497333 8.88372005 -56 6 C-52.25 4.875 -52.25 4.875 -50 6 C-48.3972902 6.11856636 -46.78994647 6.17706124 -45.18310547 6.20532227 C-44.18221893 6.22526749 -43.1813324 6.24521271 -42.15011597 6.26576233 C-40.52506638 6.29083107 -40.52506638 6.29083107 -38.8671875 6.31640625 C-37.76021515 6.33718735 -36.6532428 6.35796844 -35.51272583 6.37937927 C-31.96688201 6.44490991 -28.42096246 6.50377614 -24.875 6.5625 C-22.4752525 6.60568187 -20.07551273 6.64929605 -17.67578125 6.69335938 C-11.78393487 6.80059488 -5.89201269 6.90235472 0 7 C0 4.69 0 2.38 0 0 Z " fill="#2B3490" transform="translate(83,268)"/>
<path d="M0 0 C0.66 0 1.32 0 2 0 C0.37035624 5.97536046 -3.96615388 10.18947893 -9.1796875 13.30078125 C-14.07400035 15.6293903 -18.58099279 16.8098594 -24 17 C-26 15 -26 15 -26.125 11.375 C-26.08375 10.26125 -26.0425 9.1475 -26 8 C-25.01 7.67 -24.02 7.34 -23 7 C-22.67 8.65 -22.34 10.3 -22 12 C-19.0745356 12.2236068 -19.0745356 12.2236068 -17 11 C-17 10.34 -17 9.68 -17 9 C-16.34 9 -15.68 9 -15 9 C-15 8.34 -15 7.68 -15 7 C-13.02 6.67 -11.04 6.34 -9 6 C-8.01 7.485 -8.01 7.485 -7 9 C-6.67 7.68 -6.34 6.36 -6 5 C-4.35 4.67 -2.7 4.34 -1 4 C-0.67 2.68 -0.34 1.36 0 0 Z " fill="#4237C8" transform="translate(129,263)"/>
<path d="M0 0 C0.33 0 0.66 0 1 0 C1.22162329 1.62324086 1.42689803 3.248721 1.625 4.875 C1.74101563 5.77992188 1.85703125 6.68484375 1.9765625 7.6171875 C1.98816406 8.79667969 1.98816406 8.79667969 2 10 C0 12 0 12 -2.17425537 12.21600342 C-3.07549133 12.19982971 -3.97672729 12.18365601 -4.90527344 12.16699219 C-5.92683533 12.15327576 -6.94839722 12.13955933 -8.00091553 12.12542725 C-9.10920715 12.099505 -10.21749878 12.07358276 -11.359375 12.046875 C-12.4965094 12.02659241 -13.6336438 12.00630981 -14.80523682 11.9854126 C-17.2162861 11.93976052 -19.62724271 11.88897307 -22.03808594 11.83349609 C-25.72057964 11.75066178 -29.40300432 11.68859483 -33.0859375 11.62890625 C-35.42710879 11.58198265 -37.76825613 11.53384486 -40.109375 11.484375 C-41.2095697 11.46654968 -42.3097644 11.44872437 -43.44329834 11.43035889 C-48.65404319 11.29771805 -53.13268806 11.09140665 -58 9 C-57.67 8.01 -57.34 7.02 -57 6 C-55.92773918 6.48513565 -55.92773918 6.48513565 -54.83381653 6.98007202 C-51.90879471 8.03282599 -49.7522292 8.27369008 -46.65893555 8.31884766 C-45.6182341 8.33871735 -44.57753265 8.35858704 -43.5052948 8.37905884 C-42.3936647 8.39061005 -41.28203461 8.40216125 -40.13671875 8.4140625 C-38.98959915 8.43342865 -37.84247955 8.4527948 -36.66059875 8.4727478 C-33.0029744 8.53244467 -29.34531841 8.57889002 -25.6875 8.625 C-23.20506453 8.66318883 -20.72264218 8.70224108 -18.24023438 8.7421875 C-12.16027288 8.83813819 -6.08023211 8.92321478 0 9 C0 6.03 0 3.06 0 0 Z " fill="#080D4E" transform="translate(86,268)"/>
<path d="M0 0 C0.66 0.99 1.32 1.98 2 3 C1.34 3 0.68 3 0 3 C-0.7676516 6.43143417 -1.14305931 9.64406124 -1.20532227 13.1574707 C-1.22526749 14.15813065 -1.24521271 15.15879059 -1.26576233 16.18977356 C-1.28247482 17.2576561 -1.29918732 18.32553864 -1.31640625 19.42578125 C-1.33718735 20.52850876 -1.35796844 21.63123627 -1.37937927 22.76737976 C-1.44464932 26.28235778 -1.50365495 29.79740912 -1.5625 33.3125 C-1.60570665 35.69857523 -1.64932163 38.08464309 -1.69335938 40.47070312 C-1.8003076 46.31372506 -1.90211555 52.15681958 -2 58 C0.31 58 2.62 58 5 58 C5 58.66 5 59.32 5 60 C2.03 60 -0.94 60 -4 60 C-4.10186657 52.90173677 -4.17166082 45.80366381 -4.21972656 38.70483398 C-4.23977552 36.29265295 -4.26702192 33.88052011 -4.30175781 31.46850586 C-4.35057051 27.99060127 -4.37303683 24.51334228 -4.390625 21.03515625 C-4.41127014 19.96604507 -4.43191528 18.8969339 -4.45318604 17.79542542 C-4.45520526 10.97580641 -3.32884068 5.97397273 0 0 Z " fill="#262A96" transform="translate(50,202)"/>
<path d="M0 0 C1.32 0.33 2.64 0.66 4 1 C5.17661508 4.67692213 5.14475933 8.1638778 5 12 C4 13 4 13 2.14233398 13.11352539 C1.35157471 13.10828857 0.56081543 13.10305176 -0.25390625 13.09765625 C-1.10791016 13.09443359 -1.96191406 13.09121094 -2.84179688 13.08789062 C-3.73962891 13.07951172 -4.63746094 13.07113281 -5.5625 13.0625 C-6.46419922 13.05798828 -7.36589844 13.05347656 -8.29492188 13.04882812 C-10.53001314 13.03700225 -12.76497437 13.0205222 -15 13 C-15 12.01 -15 11.02 -15 10 C-13.865625 9.87625 -12.73125 9.7525 -11.5625 9.625 C-10.386875 9.41875 -9.21125 9.2125 -8 9 C-7.67 8.34 -7.34 7.68 -7 7 C-7 7.66 -7 8.32 -7 9 C-5.35 9 -3.7 9 -2 9 C-2.04125 8.071875 -2.0825 7.14375 -2.125 6.1875 C-2 3 -2 3 0 0 Z " fill="#4136CA" transform="translate(369,242)"/>
<path d="M0 0 C7.36894815 -0.05058145 14.73785178 -0.08568333 22.10693359 -0.10986328 C24.61541415 -0.11994011 27.12388292 -0.13360179 29.63232422 -0.15087891 C33.23147488 -0.17505337 36.83047067 -0.18646612 40.4296875 -0.1953125 C41.55680145 -0.20563507 42.68391541 -0.21595764 43.84518433 -0.22659302 C44.88611237 -0.22674408 45.92704041 -0.22689514 46.99951172 -0.22705078 C47.91884491 -0.231492 48.8381781 -0.23593323 49.78536987 -0.24050903 C52 0 52 0 54 2 C37.17 2 20.34 2 3 2 C3 4.64 3 7.28 3 10 C2.01 9.67 1.02 9.34 0 9 C0 6.03 0 3.06 0 0 Z " fill="#2E378B" transform="translate(61,223)"/>
<path d="M0 0 C0 0.66 0 1.32 0 2 C1.98 2 3.96 2 6 2 C6 2.66 6 3.32 6 4 C6.66 4 7.32 4 8 4 C8 4.99 8 5.98 8 7 C7.01 7 6.02 7 5 7 C4.67 6.34 4.34 5.68 4 5 C3.01 5.66 2.02 6.32 1 7 C-1.6640625 7.4140625 -1.6640625 7.4140625 -4.625 7.625 C-6.09839844 7.73714844 -6.09839844 7.73714844 -7.6015625 7.8515625 C-10 8 -10 8 -11 8 C-11.99 10.31 -12.98 12.62 -14 15 C-14.33 14.01 -14.66 13.02 -15 12 C-15.6599679 10.33066942 -16.32558869 8.6635479 -17 7 C-16.34 7 -15.68 7 -15 7 C-14.67 6.01 -14.34 5.02 -14 4 C-11.6015625 2.83203125 -11.6015625 2.83203125 -8.625 1.8125 C-7.15933594 1.29623047 -7.15933594 1.29623047 -5.6640625 0.76953125 C-3 0 -3 0 0 0 Z " fill="#4238CA" transform="translate(361,235)"/>
<path d="M0 0 C3.5625 0.3125 3.5625 0.3125 5.5625 1.375 C7.21452607 4.57580051 6.48256911 6.93891327 5.5625 10.3125 C3.8125 11.8125 3.8125 11.8125 1.5625 12.3125 C-1.78727063 11.99347423 -3.02929639 11.72070361 -5.4375 9.3125 C-5.6875 5.8125 -5.6875 5.8125 -5.4375 2.3125 C-3.4375 0.3125 -3.4375 0.3125 0 0 Z " fill="#061932" transform="translate(147.4375,219.6875)"/>
<path d="M0 0 C0.68835938 0.01353516 1.37671875 0.02707031 2.0859375 0.04101562 C3.76597001 0.0760163 5.4455935 0.12981046 7.125 0.1875 C6.55652344 0.46980469 5.98804687 0.75210938 5.40234375 1.04296875 C-0.78130808 4.15070458 -6.2417007 6.95635563 -10.875 12.1875 C-11.535 10.5375 -12.195 8.8875 -12.875 7.1875 C-16.14454202 7.75121414 -17.70075883 8.68712266 -19.875 11.1875 C-20.535 10.8575 -21.195 10.5275 -21.875 10.1875 C-20.67423071 9.07511221 -19.46393886 7.97300088 -18.25 6.875 C-17.57710937 6.26011719 -16.90421875 5.64523438 -16.2109375 5.01171875 C-10.93955395 0.89510317 -6.6069928 -0.24968287 0 0 Z " fill="#031735" transform="translate(70.875,189.8125)"/>
<path d="M0 0 C3.80489745 1.49478114 5.66190835 3.69442214 8 7 C9 10 9 10 9 20 C0.42 20 -8.16 20 -17 20 C-17 19.67 -17 19.34 -17 19 C-8.75 19 -0.5 19 8 19 C7.19616498 12.43848399 7.19616498 12.43848399 6 6 C4.68 5.67 3.36 5.34 2 5 C2 4.01 2 3.02 2 2 C1.34 2 0.68 2 0 2 C0 1.34 0 0.68 0 0 Z M-3 2 C-2.34 2.33 -1.68 2.66 -1 3 C-1 3.66 -1 4.32 -1 5 C-0.01 5 0.98 5 2 5 C1.34 7.97 0.68 10.94 0 14 C-1.65 14 -3.3 14 -5 14 C-4.01 13.01 -3.02 12.02 -2 11 C-5.07999946 7.32769295 -7.2482602 6.43197635 -12 6 C-12 5.67 -12 5.34 -12 5 C-7.545 4.505 -7.545 4.505 -3 4 C-3 3.34 -3 2.68 -3 2 Z " fill="#423BAB" transform="translate(367,237)"/>
<path d="M0 0 C2.9286053 -0.09103747 5.85607506 -0.15135213 8.78564453 -0.20068359 C10.07462646 -0.24515625 10.07462646 -0.24515625 11.38964844 -0.29052734 C17.54046966 -0.34833808 23.51283142 0.64682369 28.72314453 4.11181641 C30.00463867 6.75512695 30.00463867 6.75512695 30.72314453 9.11181641 C30.06314453 9.44181641 29.40314453 9.77181641 28.72314453 10.11181641 C27.5509491 9.32835926 26.38550785 8.53478805 25.22314453 7.73681641 C24.57345703 7.29595703 23.92376953 6.85509766 23.25439453 6.40087891 C22.74908203 5.97548828 22.24376953 5.55009766 21.72314453 5.11181641 C21.72314453 4.45181641 21.72314453 3.79181641 21.72314453 3.11181641 C4.56314453 2.78181641 -12.59685547 2.45181641 -30.27685547 2.11181641 C-30.27685547 1.78181641 -30.27685547 1.45181641 -30.27685547 1.11181641 C-20.18637467 0.67682205 -10.09380837 0.34443185 0 0 Z " fill="#0F1559" transform="translate(93.27685546875,220.88818359375)"/>
<path d="M0 0 C5.89089436 0.55227135 10.79214439 3.64171907 14.77734375 7.8984375 C19.05533219 13.35836406 21.36163288 17.82751231 20.625 24.875 C20.42959874 26.25189728 20.22566098 27.62773731 20 29 C19.34287464 26.51269906 18.89522303 24.19172052 18.5625 21.625 C18.03377761 18.21767796 17.18184348 15.23037219 16 12 C14.68 12 13.36 12 12 12 C11.01 13.485 11.01 13.485 10 15 C9.34 15 8.68 15 8 15 C7.6596875 13.1746875 7.6596875 13.1746875 7.3125 11.3125 C6.26450664 7.02180253 4.34506166 4.9162076 1 2 C0.67 1.34 0.34 0.68 0 0 Z " fill="#3C37C7" transform="translate(112,234)"/>
<path d="M0 0 C2 3 2 3 2 12 C-6.91 12 -15.82 12 -25 12 C-24.67 13.32 -24.34 14.64 -24 16 C-24.66 16 -25.32 16 -26 16 C-26 14.02 -26 12.04 -26 10 C-21.05 10 -16.1 10 -11 10 C-11 9.34 -11 8.68 -11 8 C-7.7 8.66 -4.4 9.32 -1 10 C-0.67 6.7 -0.34 3.4 0 0 Z " fill="#3F38A7" transform="translate(415,245)"/>
<path d="M0 0 C0.33 0 0.66 0 1 0 C1 16.5 1 33 1 50 C4.3 50 7.6 50 11 50 C11 49.34 11 48.68 11 48 C11.66 48 12.32 48 13 48 C13 49.32 13 50.64 13 52 C8.71 52 4.42 52 0 52 C0 34.84 0 17.68 0 0 Z " fill="#131B47" transform="translate(44,212)"/>
<path d="M0 0 C0.66 0 1.32 0 2 0 C1.96519531 0.95261719 1.93039063 1.90523437 1.89453125 2.88671875 C1.85392578 4.76810547 1.85392578 4.76810547 1.8125 6.6875 C1.76029297 8.54955078 1.76029297 8.54955078 1.70703125 10.44921875 C2.22182276 16.68849191 5.5872477 19.82577485 10 24 C3.83470299 23.68383092 -0.17268433 20.50784939 -5 17 C-4.34 16.67 -3.68 16.34 -3 16 C-2.67 15.34 -2.34 14.68 -2 14 C-2 14.66 -2 15.32 -2 16 C-1.34 16 -0.68 16 0 16 C-0.08378906 14.92878906 -0.16757812 13.85757813 -0.25390625 12.75390625 C-0.35704896 11.35679134 -0.45989843 9.95965476 -0.5625 8.5625 C-0.61857422 7.85544922 -0.67464844 7.14839844 -0.73242188 6.41992188 C-0.86190993 4.61572163 -0.93521608 2.80768048 -1 1 C-0.67 0.67 -0.34 0.34 0 0 Z " fill="#3C39AD" transform="translate(25,242)"/>
<path d="M0 0 C1.98 0.66 3.96 1.32 6 2 C5.86980469 2.60328125 5.73960937 3.2065625 5.60546875 3.828125 C5.18047711 6.2906934 4.87893702 8.50091413 5 11 C7.32069965 13.42416001 7.32069965 13.42416001 10 15 C10 15.99 10 16.98 10 18 C5.78771439 16.43989422 3.65453155 13.5154607 1 10 C-0.1577506 6.52674819 -0.06866652 3.63932552 0 0 Z " fill="#3F37BB" transform="translate(380,253)"/>
<path d="M0 0 C0.33 0 0.66 0 1 0 C1 2.64 1 5.28 1 8 C-11.375 8.495 -11.375 8.495 -24 9 C-24.66 10.32 -25.32 11.64 -26 13 C-26 12.34 -26 11.68 -26 11 C-26.66 11 -27.32 11 -28 11 C-27.505 9.2984375 -27.505 9.2984375 -27 7.5625 C-25.95495727 4.45623361 -25.95495727 4.45623361 -26 3 C-23.03 3 -20.06 3 -17 3 C-17.99 3.33 -18.98 3.66 -20 4 C-20 4.99 -20 5.98 -20 7 C-13.73 6.67 -7.46 6.34 -1 6 C-0.67 4.02 -0.34 2.04 0 0 Z " fill="#3930BE" transform="translate(374,248)"/>
<path d="M0 0 C3.3 0 6.6 0 10 0 C9.67 1.32 9.34 2.64 9 4 C8.236875 3.835 7.47375 3.67 6.6875 3.5 C3.96403764 2.90854604 3.96403764 2.90854604 1 3 C1.16749756 3.85158691 1.33499512 4.70317383 1.50756836 5.58056641 C2.00837763 9.05817405 2.02369761 12.20376904 1.87890625 15.7109375 C1.83056641 16.95488281 1.78222656 18.19882813 1.73242188 19.48046875 C1.67634766 20.76566406 1.62027344 22.05085938 1.5625 23.375 C1.51029297 24.68339844 1.45808594 25.99179687 1.40429688 27.33984375 C1.27501407 30.56016078 1.1400631 33.7801368 1 37 C0.67 37 0.34 37 0 37 C0 24.79 0 12.58 0 0 Z " fill="#0D1C31" transform="translate(271,235)"/>
<path d="M0 0 C0 4.62 0 9.24 0 14 C-2.64 14 -5.28 14 -8 14 C-8 13.01 -8 12.02 -8 11 C-6.35 11 -4.7 11 -3 11 C-2.67 7.7 -2.34 4.4 -2 1 C-6.455 1.495 -6.455 1.495 -11 2 C-11 2.66 -11 3.32 -11 4 C-12.65 4 -14.3 4 -16 4 C-11.82557432 0.00707109 -5.47510327 -1.82503442 0 0 Z " fill="#393297" transform="translate(42,221)"/>
<path d="M0 0 C0.66 0 1.32 0 2 0 C2 1.65 2 3.3 2 5 C2.66 5 3.32 5 4 5 C6.34869747 6.97290587 7.00102287 8.00306862 8 11 C8.99 11.33 9.98 11.66 11 12 C11.6875 14.0625 11.6875 14.0625 12 16 C9.75 16.3125 9.75 16.3125 7 16 C3.45529573 12.55955173 1.67469001 8.60539753 0 4 C0 2.68 0 1.36 0 0 Z " fill="#433CC3" transform="translate(13,242)"/>
<path d="M0 0 C0 1.32 0 2.64 0 4 C0.33 4.66 0.66 5.32 1 6 C0.34 6.66 -0.32 7.32 -1 8 C-3.625 7.625 -3.625 7.625 -6 7 C-6 8.32 -6 9.64 -6 11 C-8.5 13.25 -8.5 13.25 -11 15 C-11.33 14.34 -11.66 13.68 -12 13 C-3.66666667 0 -3.66666667 0 0 0 Z " fill="#3F36B3" transform="translate(26,225)"/>
<path d="M0 0 C0.474375 0.495 0.94875 0.99 1.4375 1.5 C-0.5425 1.5 -2.5225 1.5 -4.5625 1.5 C-4.5625 0.84 -4.5625 0.18 -4.5625 -0.5 C-6.50349815 0.09283199 -8.44021245 0.69970252 -10.375 1.3125 C-11.45394531 1.64894531 -12.53289062 1.98539063 -13.64453125 2.33203125 C-16.43684249 3.44970335 -17.57392271 4.36227941 -19.5625 6.5 C-21.75 6.1875 -21.75 6.1875 -23.5625 5.5 C-17.20155376 -0.25514183 -8.27852878 -4.84596807 0 0 Z " fill="#3A34A9" transform="translate(365.5625,235.5)"/>
<path d="M0 0 C10.23 0 20.46 0 31 0 C31 0.33 31 0.66 31 1 C21.43 1.33 11.86 1.66 2 2 C2 4.97 2 7.94 2 11 C1.34 11 0.68 11 0 11 C0 7.37 0 3.74 0 0 Z " fill="#080F44" transform="translate(59,221)"/>
<path d="M0 0 C0.66 0 1.32 0 2 0 C2.33 1.65 2.66 3.3 3 5 C4.0725 5.144375 5.145 5.28875 6.25 5.4375 C8.91662949 5.83749442 11.41399729 6.27591924 14 7 C9.64918266 9.03944563 5.75890208 9.68794085 1 10 C-1 8 -1 8 -1.1875 4.4375 C-1 1 -1 1 0 0 Z " fill="#333093" transform="translate(104,270)"/>
<path d="M0 0 C2 1 2 1 2 1 Z M-1 1 C1.97 1.495 1.97 1.495 5 2 C0.71028573 7.38056945 -2.9972851 11.58672481 -10 13 C-11.58211573 13.06548492 -13.16670081 13.08578381 -14.75 13.0625 C-15.54921875 13.05347656 -16.3484375 13.04445313 -17.171875 13.03515625 C-17.77515625 13.02355469 -18.3784375 13.01195312 -19 13 C-15.23572553 10.90873641 -11.64337545 10.2805763 -7.4375 9.5625 C-5.03054145 9.00704803 -3.15132661 8.19518145 -1 7 C-1 5.02 -1 3.04 -1 1 Z " fill="#04152F" transform="translate(92,297)"/>
<path d="M0 0 C0.66 0.33 1.32 0.66 2 1 C0.02 1.99 0.02 1.99 -2 3 C-2 3.66 -2 4.32 -2 5 C-2.99 5.495 -2.99 5.495 -4 6 C-4 6.66 -4 7.32 -4 8 C-3.34 8.66 -2.68 9.32 -2 10 C-3.49739583 11.23697917 -4.99479167 12.47395833 -6.4921875 13.7109375 C-7.71051161 14.75250992 -8.86660097 15.86660097 -10 17 C-9.73140413 10.55369901 -7.35428394 6.71172515 -3 2 C-2.01 1.34 -1.02 0.68 0 0 Z " fill="#3E3FA4" transform="translate(68,194)"/>
<path d="M0 0 C1.11936311 3.53029904 1.00372126 6.69357191 0.875 10.375 C0.8181721 15.44404861 1.24019018 18.63030111 4 23 C4 23.99 4 24.98 4 26 C-0.27124573 21.01687998 -2.28717011 17.1162797 -2.25 10.5 C-2.25515625 9.5821875 -2.2603125 8.664375 -2.265625 7.71875 C-1.98262598 4.8221718 -1.20350245 2.63624347 0 0 Z " fill="#3F39A1" transform="translate(341,243)"/>
<path d="M0 0 C2 2 2 2 2.1953125 5.0390625 C2.17210937 6.22242188 2.14890625 7.40578125 2.125 8.625 C2.10695312 9.81351563 2.08890625 11.00203125 2.0703125 12.2265625 C2.04710937 13.14179688 2.02390625 14.05703125 2 15 C4.31 15 6.62 15 9 15 C9 15.66 9 16.32 9 17 C6.03 17 3.06 17 0 17 C0 11.39 0 5.78 0 0 Z " fill="#3234A9" transform="translate(46,245)"/>
<path d="M0 0 C5.30162363 3.97621773 9.14594558 7.90427915 10.53515625 14.56640625 C11.40045872 21.39931193 11.40045872 21.39931193 9 25 C9.103125 23.88625 9.20625 22.7725 9.3125 21.625 C9.3421206 16.10569552 6.94029814 11.57082711 4 7 C3.34 6.67 2.68 6.34 2 6 C1.27306096 4.02111039 0.60183749 2.02045442 0 0 Z " fill="#3E3FA1" transform="translate(122,238)"/>
<path d="M0 0 C0.33 0.99 0.66 1.98 1 3 C-0.4375 5.1875 -0.4375 5.1875 -2 7 C-4.31 6.67 -6.62 6.34 -9 6 C-9 6.66 -9 7.32 -9 8 C-10.32 8.33 -11.64 8.66 -13 9 C-12.7734375 7.1015625 -12.7734375 7.1015625 -12 5 C-10.0390625 4.0234375 -10.0390625 4.0234375 -7.625 3.375 C-4.51757485 2.51463799 -2.74876969 1.83251313 0 0 Z " fill="#3A31B2" transform="translate(117,261)"/>
<path d="M0 0 C6.34554317 -0.45325308 10.71025881 0.33697125 16 4 C18.5 6.75 18.5 6.75 20 9 C19.67 9.66 19.34 10.32 19 11 C18.01 10.34 17.02 9.68 16 9 C16 8.01 16 7.02 16 6 C15.34 6 14.68 6 14 6 C14 5.34 14 4.68 14 4 C11.36 4 8.72 4 6 4 C6 3.01 6 2.02 6 1 C4.02 1 2.04 1 0 1 C0 0.67 0 0.34 0 0 Z " fill="#4237B1" transform="translate(395,234)"/>
<path d="M0 0 C0.66 0 1.32 0 2 0 C2.66 2.97 3.32 5.94 4 9 C4.66 9 5.32 9 6 9 C9.05732856 11.39269191 10.38467842 14.53859662 12 18 C6.64955723 15.64904788 3.25776032 11.45834972 0.625 6.3125 C0 4 0 4 0 0 Z " fill="#4038A8" transform="translate(45,288)"/>
<path d="M0 0 C4.62 0 9.24 0 14 0 C12.02 0.99 12.02 0.99 10 2 C7.70074267 3.31499986 5.40887613 4.64170128 3.12109375 5.9765625 C1 7 1 7 -2 7 C-2 6.34 -2 5.68 -2 5 C-0.35 4.67 1.3 4.34 3 4 C3 3.01 3 2.02 3 1 C2.01 0.67 1.02 0.34 0 0 Z " fill="#061546" transform="translate(64,190)"/>
<path d="M0 0 C1 3 1 3 0.00390625 5.04296875 C-0.47175781 5.75066406 -0.94742188 6.45835937 -1.4375 7.1875 C-1.91058594 7.90292969 -2.38367188 8.61835938 -2.87109375 9.35546875 C-3.42990234 10.16951172 -3.42990234 10.16951172 -4 11 C-4.103125 10.360625 -4.20625 9.72125 -4.3125 9.0625 C-4.539375 8.381875 -4.76625 7.70125 -5 7 C-5.99 6.67 -6.98 6.34 -8 6 C-7.4225 5.7525 -6.845 5.505 -6.25 5.25 C-3.6997003 3.83316683 -1.98214299 2.12372463 0 0 Z " fill="#3D3D9E" transform="translate(88,290)"/>
<path d="M0 0 C3.63 0 7.26 0 11 0 C10.34 1.32 9.68 2.64 9 4 C8.34 3.34 7.68 2.68 7 2 C3.70285207 2.32971479 2.3773161 2.6226839 0 5 C-0.6425235 7.06874034 -0.6425235 7.06874034 -1 9 C-1.66 9 -2.32 9 -3 9 C-2.01 6.03 -1.02 3.06 0 0 Z " fill="#0B1B2F" transform="translate(471,235)"/>
<path d="M0 0 C0.66 0 1.32 0 2 0 C0.59012409 5.169545 -2.86322045 8.75341352 -7 12 C-9.2265625 12.703125 -9.2265625 12.703125 -11 13 C-10.175 12.236875 -9.35 11.47375 -8.5 10.6875 C-5.65944803 8.24565858 -5.65944803 8.24565858 -6 5 C-4.35 4.67 -2.7 4.34 -1 4 C-0.67 2.68 -0.34 1.36 0 0 Z " fill="#3E36A9" transform="translate(129,263)"/>
<path d="M0 0 C3.81535102 0.52990986 6.20700678 1.30168451 9 4 C9.390625 6.48046875 9.390625 6.48046875 9.25 9.1875 C9.21390625 10.08855469 9.1778125 10.98960937 9.140625 11.91796875 C9.07101563 12.94857422 9.07101563 12.94857422 9 14 C8.67 14 8.34 14 8 14 C7.84144531 13.40832031 7.68289062 12.81664062 7.51953125 12.20703125 C5.91836612 6.78430074 4.34510752 3.64049549 0 0 Z " fill="#3A3595" transform="translate(112,234)"/>
<path d="M0 0 C5.25326356 2.62663178 8.10863162 4.67988218 11 10 C11 10.66 11 11.32 11 12 C10.34 12 9.68 12 9 12 C9 11.01 9 10.02 9 9 C8.34 9 7.68 9 7 9 C6.67 8.34 6.34 7.68 6 7 C4.7625 6.319375 4.7625 6.319375 3.5 5.625 C1 4 1 4 0.1875 1.8125 C0.125625 1.214375 0.06375 0.61625 0 0 Z " fill="#3E35AC" transform="translate(88,193)"/>
<path d="M0 0 C1.98523557 1.98523557 2.85464378 3.5016206 4.0625 6 C4.40410156 6.70125 4.74570312 7.4025 5.09765625 8.125 C5.54431641 9.053125 5.54431641 9.053125 6 10 C6.33 10.66 6.66 11.32 7 12 C5.0625 11.625 5.0625 11.625 3 11 C2.67 10.34 2.34 9.68 2 9 C1.34 9.99 0.68 10.98 0 12 C0 8.04 0 4.08 0 0 Z " fill="#0B1845" transform="translate(13,246)"/>
<path d="M0 0 C1.98 0 3.96 0 6 0 C6 2.31 6 4.62 6 7 C4.35 7 2.7 7 1 7 C1.33 5.35 1.66 3.7 2 2 C1.34 2 0.68 2 0 2 C0 1.34 0 0.68 0 0 Z " fill="#011B41" transform="translate(145,222)"/>
<path d="M0 0 C0.99 0.66 1.98 1.32 3 2 C3.66 2 4.32 2 5 2 C4.1875 3.9375 4.1875 3.9375 3 6 C2.01 6.33 1.02 6.66 0 7 C-0.99 6.01 -1.98 5.02 -3 4 C-2.34 3.67 -1.68 3.34 -1 3 C-0.67 2.01 -0.34 1.02 0 0 Z " fill="#4539C9" transform="translate(385,241)"/>
<path d="M0 0 C0.66 0 1.32 0 2 0 C2 1.32 2 2.64 2 4 C-1.96 4 -5.92 4 -10 4 C-9.67 3.34 -9.34 2.68 -9 2 C-6.03 2 -3.06 2 0 2 C0 1.34 0 0.68 0 0 Z " fill="#0A1449" transform="translate(55,260)"/>
<path d="M0 0 C1.258125 -0.04125 2.51625 -0.0825 3.8125 -0.125 C4.52019531 -0.14820313 5.22789062 -0.17140625 5.95703125 -0.1953125 C8 0 8 0 11 2 C10.67 2.99 10.34 3.98 10 5 C9.01 4.34 8.02 3.68 7 3 C4.94290404 2.75944532 4.94290404 2.75944532 2.8125 2.875 C1.554375 2.91625 0.29625 2.9575 -1 3 C-0.67 2.01 -0.34 1.02 0 0 Z " fill="#3D31A9" transform="translate(394,241)"/>
<path d="M0 0 C0.66 0.33 1.32 0.66 2 1 C2.09765625 7.15234375 2.09765625 7.15234375 2 9 C1 10 1 10 -0.84765625 10.09765625 C-2.8984375 10.06510417 -4.94921875 10.03255208 -7 10 C-7 9.67 -7 9.34 -7 9 C-4.69 8.34 -2.38 7.68 0 7 C0 4.69 0 2.38 0 0 Z " fill="#011126" transform="translate(223,263)"/>
<path d="M0 0 C0.66 0 1.32 0 2 0 C2 1.65 2 3.3 2 5 C2.66 5 3.32 5 4 5 C4.79953138 8.28696233 5.09658936 9.71023192 4 13 C3.32404685 11.58774074 2.65959941 10.16997095 2 8.75 C1.62875 7.96109375 1.2575 7.1721875 0.875 6.359375 C0 4 0 4 0 0 Z " fill="#4240AA" transform="translate(13,242)"/>
<path d="M0 0 C2.31 0.66 4.62 1.32 7 2 C5.35 3.98 3.7 5.96 2 8 C0.23537317 4.91190305 0 3.76687864 0 0 Z " fill="#3B33B2" transform="translate(348,241)"/>
<path d="M0 0 C0 0.66 0 1.32 0 2 C-7.625 3 -7.625 3 -11 3 C-7.17860188 -0.1390056 -4.83859894 -1.61286631 0 0 Z " fill="#0A1930" transform="translate(293,235)"/>
<path d="M0 0 C0.33 0 0.66 0 1 0 C1 3.96 1 7.92 1 12 C-1.31 12.33 -3.62 12.66 -6 13 C-6 12.01 -6 11.02 -6 10 C-4.35 10 -2.7 10 -1 10 C-0.67 6.7 -0.34 3.4 0 0 Z " fill="#3A34B0" transform="translate(40,222)"/>
<path d="M0 0 C0.66 0.33 1.32 0.66 2 1 C0.35 4.3 -1.3 7.6 -3 11 C-3.66 10.67 -4.32 10.34 -5 10 C-4.35699811 8.51960029 -3.71051501 7.04071218 -3.0625 5.5625 C-2.70285156 4.73878906 -2.34320313 3.91507813 -1.97265625 3.06640625 C-1 1 -1 1 0 0 Z " fill="#060F3E" transform="translate(49,201)"/>
<path d="M0 0 C0.66 0.33 1.32 0.66 2 1 C1.625 2.9375 1.625 2.9375 1 5 C0.01 5.495 0.01 5.495 -1 6 C-1 5.34 -1 4.68 -1 4 C-2.98 4.99 -2.98 4.99 -5 6 C-5 5.01 -5 4.02 -5 3 C-2.625 1.25 -2.625 1.25 0 0 Z " fill="#302BD3" transform="translate(383,249)"/>
<path d="M0 0 C1.37478516 0.01740234 1.37478516 0.01740234 2.77734375 0.03515625 C3.69644531 0.04417969 4.61554687 0.05320312 5.5625 0.0625 C6.27277344 0.07410156 6.98304687 0.08570313 7.71484375 0.09765625 C7.71484375 0.42765625 7.71484375 0.75765625 7.71484375 1.09765625 C3.25984375 1.59265625 3.25984375 1.59265625 -1.28515625 2.09765625 C-1.61515625 3.41765625 -1.94515625 4.73765625 -2.28515625 6.09765625 C-2.61515625 6.09765625 -2.94515625 6.09765625 -3.28515625 6.09765625 C-3.32787725 4.4315372 -3.32579457 2.7638274 -3.28515625 1.09765625 C-2.28515625 0.09765625 -2.28515625 0.09765625 0 0 Z " fill="#3D33B2" transform="translate(47.28515625,281.90234375)"/>
<path d="M0 0 C3.53600465 1.91135386 5.78972846 3.62642766 8 7 C7.67 7.66 7.34 8.32 7 9 C6.01 8.34 5.02 7.68 4 7 C4 6.01 4 5.02 4 4 C3.34 4 2.68 4 2 4 C2 3.34 2 2.68 2 2 C1.34 2 0.68 2 0 2 C0 1.34 0 0.68 0 0 Z " fill="#3D35A6" transform="translate(407,236)"/>
<path d="M0 0 C0.66 0 1.32 0 2 0 C1.67 2.31 1.34 4.62 1 7 C-0.32 7 -1.64 7 -3 7 C-2.67 5.68 -2.34 4.36 -2 3 C-1.34 3 -0.68 3 0 3 C0 2.01 0 1.02 0 0 Z " fill="#071C4D" transform="translate(95,292)"/>
<path d="M0 0 C4.75 0.75 4.75 0.75 7 3 C7 3.99 7 4.98 7 6 C3.63279613 4.60667426 2.0140476 3.0210714 0 0 Z " fill="#3C36AB" transform="translate(383,265)"/>
<path d="M0 0 C0.33 0 0.66 0 1 0 C1.09765625 6.15234375 1.09765625 6.15234375 1 8 C0 9 0 9 -2.5625 9.0625 C-3.366875 9.041875 -4.17125 9.02125 -5 9 C-4.01 8.34 -3.02 7.68 -2 7 C-1.32843384 5.06381575 -1.32843384 5.06381575 -1 3 C-0.67 2.01 -0.34 1.02 0 0 Z " fill="#021126" transform="translate(224,235)"/>
<path d="M0 0 C0.99 0.66 1.98 1.32 3 2 C2.01 3.485 2.01 3.485 1 5 C1.99 6.485 1.99 6.485 3 8 C1.35 7.67 -0.3 7.34 -2 7 C-1.34 4.69 -0.68 2.38 0 0 Z " fill="#041232" transform="translate(203,236)"/>
<path d="M0 0 C7.75 0.75 7.75 0.75 10 3 C6.18510326 4.46726798 3.70988378 3.43336419 0 2 C0 1.34 0 0.68 0 0 Z " fill="#081733" transform="translate(180,234)"/>
<path d="M0 0 C-0.33 0.99 -0.66 1.98 -1 3 C-3.97 2.67 -6.94 2.34 -10 2 C-6.3558226 -0.4294516 -4.28758728 -0.16179575 0 0 Z " fill="#041730" transform="translate(250,234)"/>
<path d="M0 0 C0.33 0.66 0.66 1.32 1 2 C0.22265625 4.1640625 0.22265625 4.1640625 -0.9375 6.625 C-1.31777344 7.44226563 -1.69804687 8.25953125 -2.08984375 9.1015625 C-2.39019531 9.72804688 -2.69054687 10.35453125 -3 11 C-3.33 11 -3.66 11 -4 11 C-4.56638908 6.18569279 -2.82561627 3.79692186 0 0 Z " fill="#091A30" transform="translate(469,263)"/>
<path d="M0 0 C0.33 1.65 0.66 3.3 1 5 C0.46375 4.690625 -0.0725 4.38125 -0.625 4.0625 C-3.3984957 2.82172561 -6.00042837 2.4090325 -9 2 C-9 1.67 -9 1.34 -9 1 C-2.25 0 -2.25 0 0 0 Z " fill="#3D34A6" transform="translate(364,241)"/>
<path d="M0 0 C4.31392226 0.4793247 6.16569547 1.7457985 9 5 C8.01 5.495 8.01 5.495 7 6 C5.83054208 5.19152271 4.66449539 4.37810888 3.5 3.5625 C2.8503125 3.11003906 2.200625 2.65757812 1.53125 2.19140625 C1.0259375 1.79824219 0.520625 1.40507812 0 1 C0 0.67 0 0.34 0 0 Z " fill="#102357" transform="translate(115,225)"/>
<path d="M0 0 C2.31 1.65 4.62 3.3 7 5 C3 6 3 6 1 5 C0.375 2.4375 0.375 2.4375 0 0 Z " fill="#2F3388" transform="translate(28,260)"/>
</svg>
